<?xml version="1.0" encoding="UTF-8"?>
<!DOCTYPE svg PUBLIC "-//W3C//DTD SVG 1.1//EN" "http://www.w3.org/Graphics/SVG/1.1/DTD/svg11.dtd">
<!-- Creator: CorelDRAW 2018 (64 Bit) -->
<svg xmlns="http://www.w3.org/2000/svg" xml:space="preserve" width="38.1399mm" height="13.7977mm" version="1.1" style="shape-rendering:geometricPrecision; text-rendering:geometricPrecision; image-rendering:optimizeQuality; fill-rule:evenodd; clip-rule:evenodd"
viewBox="0 0 202.26 73.17"
 xmlns:xlink="http://www.w3.org/1999/xlink">
 <defs>
  <style type="text/css">
   <![CDATA[
    .fil0 {fill:black;fill-rule:nonzero}
   ]]>
  </style>
 </defs>
 <g id="Camada_x0020_1">
  <metadata id="CorelCorpID_0Corel-Layer"/>
  <path class="fil0" d="M50.26 24.77l-2.68 0c0.17,-2.61 0.26,-4.71 0.26,-6.3 0,-4.73 -1,-8.03 -2.98,-9.89 -1.96,-1.87 -4.46,-2.8 -7.47,-2.8 -4.01,0 -8.19,1.62 -12.5,4.87 -4.32,3.25 -8.03,8.31 -11.15,15.19 -3.11,6.88 -4.66,13.95 -4.66,21.21 0,7.03 1.44,12.42 4.33,16.17 2.87,3.75 6.5,5.62 10.85,5.62 5.9,0 11.32,-3.53 16.25,-10.6 0.5,-0.71 1.01,-1.07 1.57,-1.07 0.43,0 0.81,0.14 1.12,0.43 0.29,0.28 0.45,0.6 0.45,0.98 0,0.91 -1.12,2.68 -3.35,5.33 -2.24,2.65 -5.06,4.85 -8.46,6.6 -3.39,1.77 -6.74,2.65 -10.03,2.65 -3.97,0 -7.65,-1.03 -11.06,-3.1 -3.41,-2.06 -6.04,-5.02 -7.93,-8.84 -1.88,-3.84 -2.82,-8.38 -2.82,-13.66 0,-7.36 1.93,-14.67 5.78,-21.96 3.85,-7.29 8.67,-12.92 14.45,-16.87 5.78,-3.97 11.42,-5.95 16.94,-5.95 1.98,0 3.96,0.22 5.9,0.65 0.84,0.21 4.3,1.36 10.39,3.47 -1.89,5.76 -2.96,11.71 -3.2,17.85zm40.97 40.71l-3.96 -54.23c-0.88,9.12 -2.48,17.63 -4.83,25.52 -2.36,7.89 -5.02,14 -8.02,18.3 -2.98,4.32 -6.04,7.34 -9.17,9.08 -3.11,1.74 -6.21,2.61 -9.25,2.61 -1.86,0 -3.27,-0.38 -4.27,-1.14 -0.98,-0.74 -1.48,-1.65 -1.48,-2.73 0,-0.89 0.36,-1.69 1.08,-2.36 0.72,-0.67 1.63,-1 2.75,-1 0.81,0 1.96,0.17 3.47,0.52 1.38,0.34 2.53,0.52 3.44,0.52 1.58,0 3.23,-0.58 4.94,-1.75 2.6,-1.75 5.16,-4.89 7.71,-9.39 2.53,-4.52 4.8,-10.82 6.81,-18.89 1.99,-8.07 3.25,-15.94 3.75,-23.63 -7.62,0 -13.79,1.91 -18.56,5.71 -3.8,3.03 -5.69,6.4 -5.69,10.15 0,1.63 0.89,3.63 2.68,5.95 0.96,1.24 1.45,2.25 1.45,3.03 0,0.88 -0.28,1.6 -0.83,2.17 -0.57,0.57 -1.22,0.86 -2,0.86 -1.31,0 -2.46,-0.74 -3.47,-2.22 -1.38,-1.98 -2.06,-4.33 -2.06,-7.05 0,-3.82 1.29,-7.48 3.85,-10.99 2.56,-3.51 6.12,-6.17 10.66,-8.01 4.54,-1.82 9.87,-2.75 15.98,-2.79 3.29,0 5.92,-0.31 7.9,-0.93 -0.07,2.99 -0.1,4.61 -0.09,4.85 0.02,0.29 0.05,0.98 0.12,2.06l2.96 38.29c8.08,-14.14 15.98,-25.78 23.7,-34.92 5.59,-6.45 10.46,-10.8 14.6,-13.07 -2.34,6.38 -4.83,14.79 -7.52,25.23l-6.19 24.17c-0.34,1.34 -0.79,3.3 -1.38,5.9l-1.22 5.38c2.53,0.55 4.85,0.83 6.93,0.83 1.7,0 3.51,-0.17 5.45,-0.52l-0.62 2.89c-1.72,0.28 -3.04,0.41 -3.99,0.41 -1.38,0 -3.37,-0.14 -5.95,-0.43 -2.13,-0.26 -4.01,-0.4 -5.66,-0.4 -1.75,0 -3.73,0.34 -5.95,1.03 1.86,-4.83 3.78,-11.33 5.81,-19.49l3.89 -15.41c1.65,-6.66 3.08,-11.23 4.3,-13.71 -2.7,3.06 -6.86,8.67 -12.5,16.86 -4.52,6.59 -9.58,14.93 -15.19,25.01l-4.4 7.72zm107.93 -49.28l-2.68 0c0.57,-2.8 0.86,-4.61 0.86,-5.42 0,-1.1 -0.4,-1.91 -1.15,-2.44 -0.77,-0.53 -2.24,-0.81 -4.39,-0.81l-3.2 0.05 -1.07 -0.05 -10.04 0c-0.21,0.77 -0.74,2.77 -1.63,5.97 -1.84,6.52 -3.25,11.85 -4.2,16.01l9.84 0c2.39,0 3.94,-0.24 4.64,-0.72 0.71,-0.46 1.31,-1.67 1.77,-3.61l2.68 0c-1.03,4.25 -1.93,8.69 -2.68,13.31l-2.79 0c0.24,-1.93 0.36,-3.06 0.36,-3.39 0,-0.83 -0.41,-1.43 -1.22,-1.82 -0.48,-0.24 -1.75,-0.4 -3.85,-0.46l-9.67 0c-0.96,4.66 -2.24,9.7 -3.8,15.12 -1.57,5.4 -2.91,9.58 -4.04,12.54 2.67,0.48 5.06,0.72 7.15,0.72 1.38,0 2.72,-0.1 4.06,-0.31l-0.83 2.89c-0.98,0.07 -1.89,0.1 -2.73,0.1 -0.74,0 -3.06,-0.12 -6.97,-0.36 -2.32,-0.17 -4.28,-0.26 -5.9,-0.26 -3.27,0 -6.74,0.31 -10.46,0.93l0.62 -2.79c2.99,-0.64 4.99,-1.31 5.95,-2.01 0.95,-0.71 1.69,-1.56 2.18,-2.58 1.05,-2.05 3.01,-8.41 5.87,-19.06l7.72 -30.22c-4.52,0.14 -8.46,1.15 -11.85,3.03 -3.39,1.89 -6.09,4.42 -8.08,7.6 -2.01,3.18 -3.01,6.42 -3.01,9.68 0,1.31 0.17,2.67 0.52,4.04 0.15,0.77 0.64,1.89 1.41,3.34 0.98,1.79 1.48,3.03 1.48,3.73 0,0.71 -0.29,1.32 -0.86,1.84 -0.57,0.53 -1.31,0.79 -2.2,0.79 -1.34,0 -2.44,-0.71 -3.29,-2.12 -1.14,-1.89 -1.7,-4.56 -1.7,-8.02 0,-6.76 2.63,-12.97 7.91,-18.66 5.28,-5.64 12.25,-8.46 20.88,-8.46l19.37 0c2.15,0 4.52,-0.14 7.12,-0.4 0.77,-0.07 2.43,-0.41 4.99,-1.05 -1.72,6.95 -2.75,11.39 -3.1,13.31z"/>
 </g>
</svg>
