<?xml version="1.0" encoding="UTF-8"?>
<!DOCTYPE svg PUBLIC "-//W3C//DTD SVG 1.1//EN" "http://www.w3.org/Graphics/SVG/1.1/DTD/svg11.dtd">
<!-- Creator: CorelDRAW 2018 (64 Bit) -->
<svg xmlns="http://www.w3.org/2000/svg" xml:space="preserve" width="406.103mm" height="230.145mm" version="1.1"
  style="shape-rendering:geometricPrecision; text-rendering:geometricPrecision; image-rendering:optimizeQuality; fill-rule:evenodd; clip-rule:evenodd"
  viewBox="0 0 40366.39 22876.26" xmlns:xlink="http://www.w3.org/1999/xlink">
  <defs>
    <style type="text/css">
      .str0 {
        stroke: #28282A;
        stroke-width: 19.88;
        stroke-miterlimit: 22.9256
      }

      .fil0 {
        fill: none;
        fill-rule: nonzero
      }
    </style>
  </defs>
  <g id="Camada_x0020_1">
    <metadata id="CorelCorpID_0Corel-Layer" />
    <path class="fil0 str0" d="M7637.73 18072.26c-0.21,-0.03 3.01,0.22 0,0l0 0z" />
    <path class="fil0 str0" d="M3869.56 16917.33c-0.11,1.58 -0.67,9.22 0,0l0 0z" />
    <path class="fil0 str0" d="M5793.73 17011.49c-0.21,4.16 0.67,-10.35 0,0l0 0z" />
    <path class="fil0 str0" d="M5406.18 14132.3c0.24,0.74 0.56,1.75 0.98,3.08 -0.04,-0.1 -0.57,-1.68 -0.98,-3.08z" />
    <path class="fil0 str0" d="M5406.18 14132.3c-0.25,-0.81 -0.43,-1.3 -0.5,-1.62 0.11,0.32 0.29,0.98 0.5,1.62z" />
    <path class="fil0 str0" d="M5677.16 10839.76c5.12,8.24 1.05,1.68 0,0l0 0z" />
    <path class="fil0 str0" d="M5675.83 10837.62c0.32,0.46 3.23,5.19 0,0l0 0z" />
    <path class="fil0 str0" d="M4841.86 16941.5c0.04,-0.74 0.39,-6.03 0,0l0 0z" />
    <path class="fil0 str0" d="M5495.17 10699.99c-0.1,-2.21 -0.1,-4.42 -0.21,-6.66 0.04,1.08 0.07,3.19 0.21,6.66z" />
    <path class="fil0 str0" d="M2864.96 18142.75c0,-0.39 -0.04,-0.81 -0.04,-1.15 0,6.48 0.04,7.74 0.04,1.15z" />
    <path class="fil0 str0" d="M5794.11 17005.67c0.14,-1.12 0.03,3.47 0.7,-12.1 -0.14,4.04 -0.46,8.06 -0.7,12.1z" />
    <path class="fil0 str0" d="M7643.45 18072.58c-0.39,-0.03 -0.74,-0.07 -1.12,-0.07 -0.77,-0.03 -0.81,0 1.12,0.07z" />
    <path class="fil0 str0" d="M3891.65 22472.96c0.1,2.22 0.38,-6.34 0,0l0 0z" />
    <path class="fil0 str0" d="M5793.94 17008.19c0,-0.04 0,0.32 0.18,-2.52 -0.07,0.84 -0.15,1.68 -0.18,2.52z" />
    <path class="fil0 str0"
      d="M7646.39 18875.45c-9.14,117.26 18.31,93.59 -71.43,90.22 -212.43,-8.03 -3.05,8.06 -737.64,-14.76 -167.62,-5.23 -110.14,44.95 -98.44,-349.15 17.37,-583.29 -7.29,-512.2 30.09,-525.08 3.51,-1.19 895.16,-19.46 914.21,-0.5 3.83,3.83 2.87,-3.01 -5.19,215.27 -4.17,113.9 -10.83,318.57 -31.6,583.99zm-13.99 161.86c-4.31,-3.72 0.28,-2.83 0,0l0 0zm20.41 873.67c-9.61,-8.49 -29.52,-2.7 -36.08,-8.7 -2.14,-2.04 1.05,-38.92 1.08,-39.69 15.36,-436.47 6.07,-351.09 42.16,-688.45 -4.74,187.6 -8.63,522.62 -7.16,736.84zm-12.48 932.75c-18.37,-1.23 -11.39,-78.41 -11.61,-96.58 -8.59,-782.56 -14.62,-595.52 -13.25,-777.12 14.37,0.28 26.4,2.14 37.48,-8.49 0,3.58 0.71,830.64 0.64,834.57 -0.25,18.24 9.53,48.08 -13.26,47.62zm-2.32 484.82c-3.82,-139.14 -4.66,-278.36 -6.84,-417.57 6.98,0.6 14.03,1.01 21.04,0.81 -3.26,166.49 -8.38,274.11 -14.2,416.76zm-44.67 1377.21c-14.55,66.81 -38.58,30.75 -383.83,21.78 -441.55,-11.5 -501.69,-7.44 -513.65,-26.12 -10.1,-15.72 34.86,-181.99 36.93,-517.54 0.21,-30.26 -1.19,-299.25 19.49,-322.32 20.93,-23.35 815.81,-3.3 829.28,-3.22 23.74,0.03 19.24,-5.16 26.05,14.72 7.53,22.13 -15.08,676.28 -15.22,679.79 -4.49,114.28 20.96,61.19 0.94,152.92zm-903.79 79.53c-13.01,-56.95 16.94,-30.05 252.06,-23.25 116.03,3.41 232.13,4.63 348.2,8.49 -162.14,13.82 -454.3,13.68 -600.25,14.76zm-40.33 -294.66c-20.34,200.27 -10.31,201.24 -21.35,213.13 -8.03,8.63 -41.06,-3.47 -213.91,-12.13 -507.72,-25.25 -642.73,17.25 -657.06,-31.46 -4.7,-16.02 5.12,-420.37 33.91,-754.54 6.87,-80.03 -35.07,-3.09 892.57,-43.21 -37.55,188.66 -1.08,303.15 -34.15,628.2zm-161.79 295.75c-244.07,-3.33 -487.98,7.4 -731.86,2.94 2.66,-23 4.66,-45.27 3.68,-68.45 288.63,11.75 576.79,2.35 865.39,23.18 -4.56,47.61 27.73,44.81 -137.21,42.32zm-798.45 -108.53c-293.92,-5.99 -386.84,18.2 -801.84,49.23 -51.94,3.9 -37.91,-6.38 -41.03,-58.42 -11.89,-198.05 5.96,-665.8 -9.15,-782.95 296.38,-3.44 592.58,-16.13 889.03,-16.98 -20.89,268.15 -45.1,539.7 -37,809.11zm-1.4 109.94c-8.73,7.6 -62.77,-1.69 -75.42,-2.04 -376.01,-10.03 -462.31,6.1 -761.14,7.71 3.23,-4.59 3.72,-21.03 6.27,-23.14 4.84,-4.04 27.35,-2.11 33.88,-2.59 273.63,-20.62 782.11,-68.28 799.54,-48.95 5.44,6.06 2.32,64.21 -3.12,69.01zm-1804.69 -4.28c-43.52,-8.87 31.2,-6.62 42.88,-6.48 519.25,6.66 463.96,18.37 670.99,10.73 206.01,-7.67 173.75,-27.41 198.93,5.65 -24.08,0.04 -852.1,2.46 -912.79,-9.89zm-9.36 -111.33c0.07,3.51 34.89,-173.93 15.88,-791.37 293.43,3.19 586.58,10.38 880.08,5.68 -0.14,3.51 7.64,788.15 13.36,848.63 -366.54,29.6 -912.69,-13.89 -913.71,1.61 0,0 -2,21.18 4.38,-64.55zm-67.15 -9.75c-4.87,77.95 0.42,83.56 -21.71,74.87 -3.54,0.91 -656.32,1.96 -792.91,-15.78 -30.16,-3.89 -25.28,-6.84 -26.72,-37.17 -1.97,-41.91 -11.29,-81.25 -12.35,-122.1 -7.33,-275.61 24.26,-94.36 -3.79,-584.69 -1.15,-20.2 -6.31,-46 -3.22,-66.28 9.96,-65.49 862.58,-33.52 866.13,-31.73 12.76,6.63 9.71,2.48 11.85,111.19 1.12,55.44 5.23,110.71 7.19,166.15 8.38,233.4 -24.72,509.08 -24.47,505.54zm18.48 -202.44c0.35,-5.15 0.11,-1.01 0,0l0 0zm-0.56 8.42c0.24,-4.21 0.1,-0.94 0,0l0 0zm-25.04 309.14c-0.21,1.01 -0.18,2.07 0.03,3.12 -139.63,-4.63 -105.65,-2.15 -0.03,-3.12zm-680.77 -6.42c97.23,4.04 194.37,3.65 291.64,5.19 -100.28,4.07 -189.15,2.36 -291.64,-5.19zm3621.18 -979.88c-250.05,15.84 -2218.51,28.09 -2697.41,23.32 742.14,-52.84 901.93,-68.31 2697.41,-23.32zm-3775.57 -860.06c28.65,4.35 61.15,0.28 74.87,7.19 6.13,3.16 -12.91,23.36 99.3,19.74 1313.36,-42.15 3402.96,10.25 4140.65,-28.47 373.27,-19.57 311.04,-111.75 314.76,229.68 2.31,210.5 15.25,420.58 14.23,631.15 -488.54,-4.48 -377.1,-64.98 -2590.43,-64.98 -589.91,0 -1307.71,98.75 -1973.61,79.39 -42.35,-1.22 -60.31,12.31 -100.49,18.94 -2.43,-520.9 11.36,-531.07 20.72,-892.64zm845.86 -4697.46c-27.63,960.15 46.46,815.46 -144.37,812.9 -123.23,-1.64 -695.84,11.05 -699.92,10.1 -50.91,-11.46 19.25,-69.92 -38.75,-834.71 163.69,27.74 253.35,9.89 883.03,11.71zm-949.9 -235.5c-58.11,-245.68 -50.63,-790.52 -9.93,-823.98 7.23,-5.96 24.62,0.94 134.03,4.28 167.3,5.08 223.58,4.23 394.35,0.1 354.87,-8.63 4373.94,-42.25 4377.42,-45.86 20.93,78.41 6.98,624.42 6.91,628.48 -1.79,102.39 -9.89,204.23 -26.09,305.42 -5.4,33.74 -6.03,78.65 -47.3,85.56 -28.41,4.73 -0.04,-9.5 -114.92,-0.64 -702.78,54.32 -3596.53,-131.43 -4495.06,-42.21 -53.02,5.26 -103.69,21.21 -156.71,15.95 -57.96,-5.79 -35.06,-10.21 -62.69,-127.11zm44.53 3332.31c2.52,200.01 15.61,399.74 14.07,599.84 -0.64,-188.48 -22.97,-377.7 -14.07,-599.84zm-19.6 3365.65c-34.11,-30.12 -16.16,-32.89 -18.94,-66.38 -0.56,-6.94 -8.63,-19.74 -10.03,-27.38 -0.94,-5.33 -4.87,-172.91 -0.81,-176.34 3.26,-2.77 25.77,0 30.96,-0.35 -9.43,294.05 9.92,231.89 11.92,279.68 -5.29,-1.51 -9.67,-4.59 -13.11,-9.22zm-32.36 -514.27c-1.47,-86.89 12.9,-492.67 22.83,-653.88 -6,560.12 25,573.78 13.39,830.4 -49.62,0 -32.75,35.76 -36.22,-176.52zm-38.92 -7031.16c4.14,0.6 -3.05,3.89 0,0l0 0zm3168.83 -76.94c-69.5,0.42 -138.96,0.7 -208.46,1.86 69.5,-4.14 138.93,-5.27 208.46,-1.86zm-718.75 -132.38c45.97,-4.34 83.91,7.3 130.13,6.49 739.93,-13.08 320.09,4.73 729.4,20.52 30.96,1.22 118.11,-6.53 138.19,25.91 4.14,6.62 4.95,42.6 -1.86,48.67 -27,24.09 -19.03,-43.48 -812.75,25.04 -8.49,0.78 -493.88,33.24 -517.47,28.69 -36.57,-7.09 -84.58,-53.79 -82.08,-96.92 5.85,-40.22 55.26,-24.26 416.43,-58.39zm162.22 -72.69c-33.74,0.32 -67.46,0.18 -101.2,1.12 48.46,-95.52 91.77,-193.21 130.79,-292.94 -8.2,87.95 -16.55,175.89 -26.58,263.63 -5.12,8.94 -6.09,18.34 -3.01,28.19zm-382.04 -1306.69c-60.77,-142.4 -78.13,-294.69 -118.63,-443.12 -101.52,-371.84 -101.52,-472.83 -100.28,-722.67 451.79,1201.7 282,679.6 438.82,1311.67 34.99,141.1 103.2,292.23 140.75,419.32 75.32,241.99 76.41,184.54 9.29,367.31 -37.18,101.24 -84.02,210.33 -121.01,287.22 -10.67,22.2 -42.16,64.1 -37.21,89.84 -75.99,0.64 -152.12,4.31 -228.11,2.84 255.5,-347.29 185.61,-915.89 16.38,-1312.41zm-285.05 -965.78c10.31,186.41 81.63,489.09 149.86,759.28 -119.22,-228.95 -191.11,-503.48 -149.86,-759.28zm147.06 -280.18c-8.73,0.35 -35.73,6.31 -38.54,-2.04 12.83,0.88 25.66,1.51 38.54,2.04zm838.92 35.07c-12.07,121.85 -212.01,1395.27 -252.34,1830.58 -48.33,-151 -110.78,-298.63 -152.65,-451.4 -151.31,-551.9 70.31,20.27 -456.8,-1372.31 52.08,-2.46 534.44,3.62 861.78,-6.87zm-44.5 -39.87c-190.16,4.91 -380.61,2.91 -570.8,1.89 187.95,-4.66 382,-7.81 570.8,-1.89zm112.24 47.37c22.93,-34.47 323.87,14.03 399.71,22.44 -20.2,51.19 -114.56,259.59 -167.01,393.71 -50.64,129.58 -90.89,262.33 -139.46,392.5 -96.4,258.44 -232.35,500.04 -319.95,762.12 0.42,-3.69 140.93,-996.19 143.49,-1008.92 128.41,-635.71 52.11,-515.12 83.21,-561.85zm425.32 -42.6c-13.82,35.76 7.4,26.93 -205.24,0.77 25.6,-0.32 112.73,-4.11 205.24,-0.77zm-594.65 2555.87c-50.01,-0.56 -99.8,-4.11 -149.91,-3.75 5.96,-18.31 30.61,-292.04 32.47,-311.67 15.12,50.88 51.94,138.72 117.44,315.41zm642.09 -2483.4c-0.07,75.12 0.56,148.75 -2.07,223.8 -0.67,-4.49 2.28,107.83 -78.03,436.42 -82.58,337.97 -73.61,346.6 -109.37,445.66 -18.69,51.83 -394.73,869.22 -12.06,1384.85 -17.43,-0.07 -34.82,-0.07 -52.25,0.04 1.79,-0.07 3.62,-0.07 5.44,-0.07 -385.02,0 -319.34,-1.9 -345.89,-72.66 -196.51,-523.36 -230.24,-416.47 244.37,-1528.66 1.51,-3.54 320.29,-891.9 349.86,-889.38zm-129.26 2470.85c-87.1,-81.03 -130.76,-231.47 -150.46,-344.56 5.05,11.22 148.64,340.38 150.46,344.56zm1533.43 2205.64c-47.58,-2.69 -263.77,0.75 -935.14,-21.14 4.84,-45.13 6.6,-762.12 22.31,-804.87 9.02,-24.51 12.65,-17.04 40.92,-16.44 3.51,0.07 847.68,2.46 852.03,2 -7.61,21.39 25.7,61.26 29.98,83.35 6.1,31.91 3.05,68.17 3.54,100.6 3.23,227.02 -6.76,457.2 -13.64,656.5zm-1869.53 -847.43c296.94,3.54 594.05,-2.18 890.92,2.94 -11.33,66.06 -15.88,111.75 -23.71,821.62 -298.52,-3.79 -597.35,8.49 -895.9,8.35 5.33,-85.24 29.73,-829.38 28.69,-832.92zm-163.3 899.19c-277.03,9.09 -1503.62,24.27 -2124.15,-2.07 594.76,-10.03 1381.56,-19.53 2124.15,2.07zm-1779.11 -876.22c12.98,-19.17 137.85,7.57 892.88,-17.15 -8.84,314.3 13.72,515.61 14.03,523.61 2.77,71.57 -19.39,221.9 -8.27,286.17 -18.31,-0.56 -721.2,5.26 -917.67,13.19 36.5,-579.82 10.76,-793.65 19.03,-805.82zm-750.34 -93.97c813.31,-61.51 1719.21,1.72 1784.85,4.38 -839.09,22.9 -1733.34,0.74 -1784.85,-4.38zm1709.71 138.06c1.19,-72.8 -134.59,-81.04 919.49,-67.85 -16.44,53.23 -22.2,807.32 -32.23,825.09 -6.24,11.08 48.81,10.6 -878.78,-7.33 -15.3,-85.98 3.5,-169.41 6.91,-254.65 3.19,-79.28 -21.01,-153.94 -15.4,-495.27zm1827.11 2462.22c-5.82,65.74 -16.17,132.97 -7.85,198.96 -286.85,-4.24 -573.36,-0.31 -860.1,8.81 27.25,-292.04 1.33,-589.91 2.21,-882.79 258.62,6.91 487.07,11.08 884.23,5.89 -8.98,175.75 -5.09,517.71 -18.48,669.13zm2.94 192.23c0.78,-1.15 2.59,-3.51 0,0l0 0zm-436.6 73.11c176.21,-3.86 362.3,-2.03 529.49,3.83 -176.62,6.52 -352.9,2.14 -529.49,-3.83zm-1402.22 -931.13c22.06,-0.35 623.96,-14.13 844.94,-11.54 65.64,0.78 51.94,-2.52 57.19,20.69 6.91,30.37 -5.3,20.3 2.56,239.49 1.04,30.37 8.02,475.71 -0.15,574.31 -5.95,72.09 13.89,52.85 -73.98,53.38 -4.2,0 -469.81,0.14 -473.81,0.14 -380.36,-1.12 -349.05,10.93 -353.54,-20.49 -16.48,-115.75 7.65,-775.2 -3.22,-855.99zm-63.44 878.86c-264.57,3.79 -875.07,42.84 -870.65,-16.56 11.99,-160.7 2.21,-807.7 20.06,-852.84 15.95,-40.33 277.47,-3.57 848,-8.59 -2.55,15.01 -8.59,786.94 2.59,877.98zm-1801.19 -854.14c194.06,15.18 295.85,-23 884.57,-31.95 -50.63,253.07 36.15,894.25 -53.86,891.94 -342.48,-8.95 -323.86,20.48 -772.07,-24.09 -109.27,-10.87 -33.56,62.94 -58.64,-835.9zm2 2758.6c0.07,-3.51 19.04,-861.23 20.24,-864.76 0.03,-4.98 0.03,-9.92 0.07,-14.9 353.95,-28.12 808.47,-16.84 815.21,-14.98 14.2,-5.4 20.13,-2.07 17.74,9.96 25.7,363.99 2.18,412.9 -7.82,751.96 -5.19,175.61 123.46,126.38 -845.44,132.73zm4610.4 -963.33c-219.55,-7.41 -1839.52,-28.3 -2834.41,-12.14 -1723.94,27.98 -1551.31,-45.24 -1705.99,-43.7 -37.41,0.32 -37.91,31.14 -3.83,40.75 43.84,12.31 95.77,12.38 140.97,17.77 -62.2,3.47 -124.34,7.64 -186.44,12.55 0.39,-302.26 -13.15,-605.16 -20.1,-907.4 1151.71,42.85 3647.56,51.83 3651.1,51.79 193.32,-1.82 545.34,-20.58 910,4.74 25.98,1.82 78.55,17.84 102.07,4.83 -34.61,346.18 -38.89,270.89 -53.37,830.79zm-618.01 63.5c120.63,-2.69 240.97,-5.19 361.6,-2.48 -120.35,2.77 -241.22,3.97 -361.6,2.48zm-234.24 863.39c-9.5,-90.12 45.62,-304.02 43.77,-826.56 379.66,7.64 549.03,7.05 807.78,-25.11 0.04,30.37 -3.86,-150.36 14.34,864.2 -321.84,-20.69 -562.67,-1.93 -865.89,-12.52zm307 71.12c-144.92,4.48 -288.7,-2.11 -433.52,-5.19 157.06,0.07 232.25,8.24 433.52,5.19zm-912.83 -949.27c199.84,0.32 314.12,-4.17 495.97,9.05 -165.41,-0.9 -330.6,-5.4 -495.97,-9.05zm383.9 943.73c-96.95,1.4 -192.44,2.46 -285.99,3.3 130.93,-1.93 231.96,-3.58 285.99,-3.3zm-732.84 -56.74c27.77,-602.01 29,-502.95 21.74,-703.56 -1.57,-43.84 -3.36,-79.88 -0.24,-125.15 0.21,-3.15 0.38,-5.99 0.38,-6.45 1.76,-24.9 1.65,-11.71 20.79,-17.39 9.4,-2.8 491.95,13.54 765.91,14.77 152.75,0.67 127.54,-55.34 117.9,211.76 -20.63,569.33 -38.16,353.32 -39.91,615.72 -256.01,-3.58 -623.4,5.92 -886.57,10.31zm-47.65 -793.67c-1.33,55.19 2.55,119.54 4.11,165.58 7.08,214.77 -13.82,274.32 -17.5,437.41 -3.12,138.86 6.24,176.24 -6.59,190.83 -3.26,3.72 -868.47,-13.29 -872.05,-13.36 6.17,-16.58 -6.24,65.54 3.08,-427.76 2.77,-146.57 15.19,-292.73 15.61,-439.37 1.51,0.03 215.02,10.87 876.72,25.98 -0.88,11.99 -1.3,17.22 -1.33,17.15 -0.88,16.62 -2.04,42.53 -2.04,43.56zm-674.56 851.64c-594.23,-7.37 -756.3,-20.17 0,0l0 0zm-1160.19 -923.78c297.57,1.79 595.88,-9.57 893.44,-14.37 -0.42,102.25 -35.49,805.53 -14.51,865.81 -457.16,-9.64 -706.83,9.18 -889.76,25.39 0.39,-3.65 32.61,-571.47 10.83,-876.82zm3796.93 -1962.99c-24.97,-2.11 -9.33,-12.8 -30.55,-22.51 -26.26,-12.06 -129.71,55.96 -1943.84,9.02 -661.16,-17.08 -273.69,-78.24 -2596.94,-6.07 -19.36,0.57 -153.27,-10.9 -128.03,33.64 27.38,48.28 851.05,-80.76 2245.26,-17.33 -396.34,8.1 -791.19,4.45 -1187.5,-0.21 -534.19,-6.31 -1026.86,49.65 -1062.85,34.71 -17.26,4.31 -23.11,-2.14 -17.53,-19.39 -3.47,-159.02 4.11,-300.61 -10.59,-894.63 404.9,-9.02 210.32,56.35 1840.43,42.12 3309.24,-28.99 2513.14,-12.14 2789.56,-22.68 34.43,-1.34 74.37,-13.12 106.39,-12.21 -8.98,291.57 -2.39,583.91 -3.82,875.56zm-1842.12 -6944.48c-47.23,-177.12 -31.42,-77.56 1.93,-126.9 -3.68,42.05 -1.68,84.72 -1.93,126.9zm-18.98 204.57c-4.48,9.15 0.98,-3.26 0,0l0 0zm-36.89 -374.12c0,0.11 -0.03,0.22 -0.07,0.36 -0.49,-1.09 -0.17,-0.64 0.07,-0.36zm-329.05 -323.2c-36.01,-38.89 -138.76,53.2 -211.66,25.25 30.16,-26.12 59.26,-14.8 228.91,-54.35 -4.17,6.84 -13.36,22.37 -17.25,29.1zm1270.99 1290.32c17.26,3.89 25.47,17.84 39.38,29.73 -14.65,2.21 -62.41,-34.89 -39.38,-29.73zm-2.69 120.87c-0.04,-1.65 -0.87,-25.08 -0.07,-24.9 6.66,-1.93 12.31,-1.26 17.01,2.04 -5.76,7.53 -11.43,15.15 -16.94,22.86zm1108.71 3648.28c2.87,-119.99 6.03,-238.55 -2.32,-358.4 18.38,124.7 13.22,227.57 2.32,358.4zm1026.56 6701.97c-53.37,1.54 -105.97,10.28 -159.27,12.06 -109.66,3.72 -151.91,-13.67 -339.87,2.46 -271.58,23.29 -361.35,9.79 -695.6,26.97 0,-3.86 124.63,-5772.89 96.19,-6162.37 70.69,48.71 148.78,-724.6 107.61,-961.29 -13.22,-76.06 -23.32,-170.07 -113.4,-183.01 -40.81,-5.85 -809.53,-25.66 -813.14,-25.7 -204.71,-1.68 -409.47,4.88 -614.18,4.14 24.08,-154.51 -106.91,-155.56 -115.82,-162.5 -24.55,-19.25 -177.83,-403.61 -179.48,-407.26 -141.8,-315.52 106.18,-864.34 146.93,-1027.53 20.59,-82.51 36.15,-165.8 55.47,-248.48 211.27,-905.08 95.41,-726.42 116.83,-868.62 3.83,-25.25 14.52,-51.54 -26.3,-56.21 5.69,-16.44 30.16,-22.27 43.35,-39.34 22.06,-28.58 72.09,-102.25 113.78,-156.95 20.31,-26.62 30.02,-48.39 62.67,-51.44 -15.74,34.15 25.69,55.89 52.87,41.62 22.37,-11.75 39.77,-42.5 59.16,-60.07 0.56,31.77 -18.34,130.34 39.87,122.1 31.17,-4.45 18.06,-23.32 95.1,-126.38 18.13,20.27 38.44,67.11 72.9,56.42 40.99,-12.76 20.35,-75.81 15.58,-105.16 158.95,59.75 181.35,-114.39 -75.99,-157.34 22.69,-19.74 96.51,-97.55 25.15,-109.58 -39.28,-6.63 -90.06,53.12 -115.65,77.14 4.48,-35.42 14.07,-138.06 -37.45,-147.14 -66.38,-11.68 -112.24,261.91 -144.33,304.9 -0.14,0.14 -56.99,47.9 -132.3,151.62 78.2,-193.98 86.82,-315.27 286.77,-874.09 -0.84,27.81 -10.17,247.05 63.68,190.2 27.08,-20.86 8.31,-43.7 31,-261.38 193.67,344.03 306.99,89.52 63.05,-83.84 143.87,15.29 230.81,73.92 261.1,33.03 50.18,-67.67 -164.01,-111.02 -200.44,-120.06 31.56,-22.47 163.97,-103.41 124.2,-151.48 -43.17,-52.21 -219.68,123.46 -252.3,100.78 -23.99,-16.66 -24.97,-63.54 -52.04,-77.11 -34.19,-17.15 -52.12,15.54 -47.69,44.15 4.24,27.77 17.25,58.8 29.42,83.91 -24.69,0.42 -188.27,-40.47 -155.66,37.97 10.34,24.94 45.68,26.94 68.56,28.27 -48.92,36.18 -94.86,75.6 -140.97,115.22 -22.17,19.01 -99.66,63.61 -51.97,96.99 32.57,22.79 76.94,-27.42 101.97,-45.31 44.95,-32.05 88.05,-65.57 130.02,-101.48 -101.52,218.35 -365.28,1150.12 -413.82,1157.03 -3.51,0.53 -343.92,2.77 -421.49,-0.39 20.24,-198.29 47.2,-395.54 75.39,-592.82 8.98,64.55 12,138.36 35,199.76 23,61.55 70.58,28.2 76.76,-22.75 9.61,-79.42 -2.42,-321.03 -26.83,-421.35 60.36,87.28 88.79,187.18 140.58,278 39.84,69.86 127.29,30.79 50.01,-140.19 18.13,26.34 54.74,60.63 79.39,19.07 22.61,-38.11 -19.43,-80.93 -42.61,-106.71 -63.81,-71.04 -116.14,-151.1 -180.83,-221.33 140.08,22.2 232.55,115.96 265.31,43.86 22.44,-49.47 -39.03,-61.33 -72.55,-67.85 -55.06,-10.7 -86.41,-24.01 -168.63,-40.78 35.31,-11.82 287.82,-80.13 232.17,-147.84 -26.65,-32.39 -70.31,9.85 -96.71,20.83 -49.59,20.48 -101.13,37.03 -151.07,56.95 54.28,-55.58 178.62,-168.95 156.95,-213.52 -10.17,-20.86 -31.91,-22.37 -50.49,-13.47 -26.82,12.87 -233.96,234.14 -237.12,237.68 0.84,-66.28 23.64,-186.66 -3.29,-213.41 -14.62,-14.59 -40.01,-14.91 -52.88,3.19 16.94,-102.22 62.59,-178.35 129.18,-255.8 5.92,0.21 11.82,-0.36 17.67,-1.65 23.29,-14.45 12.8,-22.17 23.04,-40.74 5.51,-9.96 25.64,-19.25 34.26,-26.59 13.99,-11.88 24.75,-25.63 39.02,-37.13 -5.82,24.4 -24.61,186.37 49.16,135.49 30.41,-21 1.97,-158.74 41.73,-146.16 41.06,13.01 59.3,144.02 120.66,114.63 56.04,-26.82 -24.9,-119.33 -47.13,-142.82 202.99,-58.74 132.65,-145.31 61.96,-114.46 21.5,-42.81 -27,-76.69 -66.06,-69.25 4.27,-23.92 -8.94,-47.8 -34.54,-48.61 -60.21,-1.89 -94.85,152.79 -130.05,149.14 -34.15,-3.54 -86.65,-117.08 -130.55,-57.54 -32.82,44.46 62.24,96.61 91.13,113.61 -35.17,14.41 -36.22,40.08 -58.59,63.4 -88.52,92.4 -178.74,181.43 -207.98,353.15 -1.64,-3.89 -21.81,-41.62 -177.43,-326.39 44.07,15.08 217.75,90.96 238.2,17.32 18.76,-67.57 -97.66,-42.46 -186.34,-73.64 39.27,-7.92 229.19,-39.52 187.36,-113.79 -23.78,-42.25 -72.16,-8.13 -213.58,11.44 29.2,-32.82 124.93,-110.25 99.2,-161.69 -40.78,-81.46 -144.51,74.09 -195.25,149.83 -2.77,-2.62 -6.03,-4.48 -9.78,-5.65 -13.05,2.04 -28.58,-2.48 -44.08,1.33 -17.08,4.24 -33.56,11.96 -50.52,16.8 -26.12,7.5 -200.62,35.87 -128.14,97.13 -39.27,7.78 -84.82,14.27 -112.77,46.11 -27.7,31.56 -28.48,70.24 5.89,95.76 62.41,46.4 159.44,7.71 223.72,-14.86 -16.76,30.89 -125.64,175.5 -60.73,192.89 39.94,10.73 119.75,-136.54 132.79,-163.37 0.32,24.44 3.09,69.57 2.77,66.03 1.05,11.82 1.19,28.4 7.33,39.06 8.6,14.94 25.11,23.7 42.05,17.95 42.32,-14.37 29.28,-99.77 30.58,-133.15 157.17,301.25 146.72,233.54 216.78,493.45 -47.58,-0.81 -285.37,18.83 -303.77,39.66 -33.1,37.59 16.97,57.64 47.51,54.67 46.46,-4.53 92.58,-4.49 139.21,-2.15 -81.28,39.59 -159.72,84.76 -236.51,132.38 -35.18,21.81 -182.87,84.33 -156.78,144.3 37.07,85.18 212.36,-81.46 406.1,-189.26 -57.68,59.23 -230.21,204.78 -245.43,253.88 -7.71,24.93 7.54,49.9 34.89,47.44 37.73,-3.29 271.8,-277.54 323.62,-318.43 -107.23,219.72 -232.73,431.76 -193.07,484.25 49.66,65.78 108.84,-113.16 124.7,-141.21 47.86,-84.58 94.72,-169.79 124.7,-262.71 9.96,104.74 -58.74,405.89 -101.52,838.91 3.97,18.24 -3.09,23.68 -21.18,16.41 -68.79,18.8 172.35,-21.39 -722.53,4.04 -62.31,1.79 -156.11,4.17 -172.74,-14.34 -48.71,-54.1 17.6,-88.82 71.05,-132.34 34.15,-27.8 68.17,-56 104.11,-81.49 -2.56,33.49 -22.2,104.95 -4.88,135.17 10.21,17.78 34.01,24.58 51.09,10.42 15.15,-12.58 13.68,-36.26 15.4,-53.93 19.49,25.08 55.3,15.88 63.47,-12.9 7.78,-27.45 -18.16,-67.99 -22.02,-96.19 22.23,24.37 106.6,152.23 145.66,95.11 28.83,-42.16 -68.45,-128.27 -96.85,-153.48 36.69,-16.45 124.53,-45.8 127.75,-93.55 5.47,-81.32 -113.5,-5.72 -138.93,9.46 16.2,-27.25 51.87,-77.35 14.8,-103.24 -60.77,-42.46 -107.02,114.85 -135.81,122.42 -10,2.59 -23.75,-9.4 -38.54,-4.07 -15.33,5.54 -19.6,19.77 -31.7,27.52 -56.43,36.15 -205.07,27.91 -212.05,79.6 -9.46,69.68 139.71,25.73 171.47,21.21 -46.22,36.58 -92.54,72.66 -132.48,116.18 -39.59,-91.63 -80.54,-240.7 -81.67,-264.04 -1.19,-25.57 3.79,-40.57 -3.83,-68.87 44.25,30.48 93.52,52.01 138.44,81.21 16.41,10.74 34.54,33.85 55.75,33.07 21.39,-0.81 35.84,-21.07 31.77,-41.34 -11.43,-56.99 -194.02,-172.56 -248.9,-203.56 50.49,17.81 100.81,33.77 149.94,55.68 59.19,26.37 172.17,109.16 190.34,43.9 8.63,-31.07 -23.5,-34.82 -32.44,-55.93 -11.67,-27.52 40.3,-35.83 -98.11,-89.31 127.96,4.8 178.98,38.15 176.59,-16.69 -2.88,-66.56 -184.87,-52.32 -226.6,-52.71 28.02,-5.12 83.25,-3.43 105.76,-23.67 29.45,-26.51 3.51,-55.5 -25.53,-60.62 -55.65,-9.79 -52.18,13.99 -263.14,5.65 18.91,-17.92 59.86,-46.15 62.06,-74.84 1.62,-21.07 -14.79,-36.68 -34.96,-36.32 -20.23,0.35 -34.15,19.03 -48.07,31.56 -76.34,68.45 -109.52,80.05 -118.8,92.18 -4.84,6.28 -6.07,18.41 -10.14,23.28 -13.93,16.59 -45.2,29.74 -62.73,41.84 -42.16,29.03 -81.78,60.91 -113.96,101.03 -19.08,23.81 -67.65,68.86 -42.54,100.18 28.94,36.11 59.69,-10.21 77.5,-30.93 35.45,-41.31 75.81,-82.37 120.34,-113.82 -33.94,66.41 -53.76,143.84 -81.67,213.23 -27.74,68.94 -53.62,138.17 -68.73,211.09 -5.47,26.41 -17.67,72.77 16.38,86.2 58.25,22.93 64.31,-104.61 124.31,-253.32 -4.14,62.66 -8.95,125.29 -14.45,187.84 -2.31,26.3 -18.94,119.99 40.64,96.76 38.72,-15.08 30.51,-121.64 33.7,-155.84 6.1,-65.53 14.13,-130.58 25.39,-195.46 62.01,179.3 59.86,277.97 116.04,226.84 25.39,89.25 69.6,170.28 100.67,257.31 -24.08,4.66 -41.27,29.14 -25.7,52.6 -27.14,1.65 -16.73,22.61 -12.65,36.57 10.52,-0.03 13.5,4.38 8.94,13.29 -44.14,288.74 -73.57,346.07 -17.38,623.3 48.87,241.28 279.08,649.14 279.5,733.72 0.04,0.11 0,0.07 0.04,0.21l0 0c0,16.73 214.19,643.81 -7.92,1003.34 -103.69,167.83 -65.34,114.39 -105.87,122.14 -14.37,2.76 -12.34,11.99 -22.2,15.32 -11.46,3.9 -67.36,-8.1 -85,43.28 -4.87,14.09 -1.61,27.8 -3.83,41.69 -2.69,17.05 -9.96,31.91 -10.31,49.97 -0.6,32.93 5.3,64.88 30.06,87.95 -712.82,-25.22 -1113.77,-1.4 -1979.09,17.22 -17.56,0.39 -29.34,-8.17 -45.61,2.04 -45.25,28.4 -37.71,145.17 -39.66,190.44 -9.84,230.28 1.42,642.55 93.28,870.55 -36.16,87.24 75.49,511.86 35.38,1471.92 -26.47,632.93 23.5,2772.97 -3.33,3277.95 -0.21,3.51 -70.37,1429.25 -66.87,1431.57 -55.86,14.69 -485.31,-17.15 -1487.49,36.33 -334.37,17.84 -675.49,41.3 -1010.03,14.58 -146.1,-11.68 -336.76,-74.48 -288.6,12.28 32.42,58.39 521.83,62.87 594.7,62.27 330.15,-2.84 658.55,-17.36 988.26,-35.21 473.35,-25.64 1141.78,-16.23 1206.87,-19.6 0,76.84 -8.2,158.75 10.56,234.14 20.2,81.18 77.53,80.72 83.29,86.87 23.67,25.28 -32.79,75.45 247.95,92.99 86.23,5.37 171.39,6.56 257.73,3.12 3.82,-0.14 3565.78,44.71 4116.07,-18.51 41.98,-4.84 73.18,-6.81 99.24,-31.85 -0.5,0.67 -0.57,0.74 0.31,-0.31 7.3,-7.13 14.24,-15.65 20.86,-27.01 12.45,-21.46 29.7,-79.63 27.29,-136.82 -0.74,-16.84 -8.81,-26.55 -11.54,-40.44 -1.96,-10.2 3.76,-125.92 4.98,-129.46 -5.72,-17.43 -0.1,-23.89 16.77,-19.36 958.35,-49.65 1161.06,-18.05 1197.74,-48.28 20.59,-16.94 12.65,-60.95 -18.41,-60.18z" />
    <path class="fil0 str0" d="M3802.19 16911.55c0.11,-1.26 0.39,-5.58 0,0l0 0z" />
    <path class="fil0 str0" d="M5723.35 19999.56c0.17,-3.37 0.31,-6.45 0.45,-8.73 -0.38,6.27 -0.53,8.7 -0.45,8.73z" />
    <path class="fil0 str0" d="M32077.63 22529.74c4.73,-0.21 0.94,-0.11 0,0l0 0z" />
    <path class="fil0 str0" d="M32085.45 22529.35c-2.6,0.11 -12.48,0.87 0,0l0 0z" />
    <path class="fil0 str0"
      d="M20820.4 1999.2c0.7,0.42 3.61,4.07 0,0l0 0zm-1.16 -1.33c2.74,3.01 0.39,0.46 0,0l0 0zm-116.56 -285.75c-21.28,20.9 -68.72,73.88 -49.72,104.89 35.45,57.68 78.72,-41.03 101.41,-60.66 32.82,-28.41 57.86,-14.98 57.96,20.3 0.04,15.92 -14.97,23.32 -1.89,42.12 12.8,18.45 25.36,10.66 42.74,11.78 17.85,1.16 12.14,-12.48 19.07,6.74 5.82,16.09 -0.9,13.43 -11.14,22.65 -47.34,42.42 -43.81,-18.59 -72.98,-32.09 -40.67,-18.77 -51.97,27.84 -40.74,55.37 31,75.74 136.23,71.5 181.19,7.16 9.09,30.19 46.85,29.56 62.38,5.95 12.35,-18.83 1.01,-51.76 34.86,-57.18 19.84,-3.23 22.72,6.87 29.87,22.27 16.84,36.18 3.47,55.3 -5.47,89.27 -10.45,39.77 20.62,82.51 -101.83,77.78 -35.87,-1.4 -81.28,-6.1 -113.89,-22.06 -23.21,-11.36 -44.18,-43.17 -70.51,-15.81 -75.32,78.31 273.48,169.79 338.45,42.29 28.93,-56.71 42.71,-143.67 12.2,-207.07 -35.69,-74.06 -136.34,-70.48 -175.22,1.61 -6.1,-30.89 -22.65,-60.97 -56.1,-67.5 -12.66,-93.9 -122.24,-105.12 -180.63,-47.79z" />
    <path class="fil0 str0"
      d="M18817.82 2055.13c-67.5,107.83 127.89,183.95 214.12,45.58 43.8,-70.24 -7.23,-100.22 -41.45,-65.33 -17.92,18.27 -20.79,49.86 -44.89,64.02 -19.32,11.33 -54.38,9.26 -74.09,-0.81 12.1,-27.52 55.65,-33.74 55.06,-65.36 -0.91,-48.11 -51.06,-18.44 -73.01,-35.87 -26.41,-20.96 17.04,-50.42 35.83,-62.23 73.81,-46.5 93.94,-9.79 111.34,-3.3 81.04,30.3 61.47,-125.64 -95.38,-78.72 -78.2,23.39 -191.74,134.8 -87.52,202.02z" />
    <path class="fil0 str0"
      d="M20274.07 755.2c14.83,27.11 -35.69,70.66 -46.11,89.53 -46.04,83.28 110.74,59.96 104.89,99.2 -2,13.25 -41.35,32.85 -51.31,44.07 -8.34,9.36 -13.64,25.74 -25.46,28.9 -26.37,7.02 -79.28,-43.69 -103.86,-54.31 -27.31,-11.79 -23.85,-11.22 -29.42,-42.85 -23.85,-134.76 135.07,-194.13 151.28,-164.54zm-221.09 267.45c26.2,-2.46 39.7,-10 67.61,0.63 42.53,16.2 126.62,102.82 190.37,39.77 15.81,-15.68 24.12,-31.67 42.09,-46.25 87.91,-71.43 44.39,-148.26 -43.42,-164.91 174.04,-264.43 -315.48,-212.85 -250.27,96.36 -48.87,6.34 -60.28,79.6 -6.38,74.41z" />
    <path class="fil0 str0"
      d="M20546.99 1231.36c-0.36,0.46 -0.81,1.16 -1.26,1.83 -0.04,0.1 -0.11,0.21 -0.11,0.31 0.35,-0.56 0.64,-0.94 1.37,-2.14z" />
    <path class="fil0 str0"
      d="M20545.73 1233.19c1.26,-5.27 42.64,-42.54 0.63,-64.28 28.94,-35.03 60.87,-68.06 172.42,-74.76 -103.13,62.56 17.74,88.68 42.68,99.62 65.6,28.83 -3.62,67.04 68.83,128.17 -77.14,52.99 -142.3,34.12 -211.55,-19.31 -16.48,-12.77 -77.18,-48.88 -73.12,-69.12 -1.26,2 -0.81,1.16 0.11,-0.31zm-61.23 -29.56c-43.52,65.64 66.95,134.41 107.94,164.77 63.81,47.3 132.97,72.62 211.05,42.78 179.71,-68.63 69.72,-135.36 62.91,-148.58 -19.28,-37.51 40.23,-83 -81.81,-133.15 45.06,-40.91 38.29,-134.12 -144.92,-91.49 -109.2,25.4 -218.89,135.82 -155.17,165.66z" />
    <path class="fil0 str0"
      d="M19872.49 958.73c-2.49,27.11 -0.14,26.15 -23.78,27.07 -60.8,2.32 -29.31,-68.24 -59.19,-146.85 41.17,8.45 89.56,47.76 82.97,119.79zm-77.42 83.59c34.11,16.13 46.07,-5.33 81.56,34.96 22.51,25.6 70.94,27.42 64.45,-20.68 -1.36,-10.17 -13.15,-18.45 -14.34,-27.91 -1.64,-13.47 16.56,-23.11 14.84,-92.89 -4.91,-204.86 -293.16,-193.18 -235.44,-102.04 58.98,82.47 7.75,170.24 88.93,208.57z" />
    <path class="fil0 str0"
      d="M12464.33 4191.59c13.26,157.23 7.3,314.19 14.13,471.84 -21.99,-0.67 -14.55,-159.72 -14.13,-471.84zm118.49 -349.3c-25.43,55.61 77.28,-7.95 864.97,37.35 689.25,39.65 1626.03,-14.87 2766.55,-55.93 1561.14,-56.21 1917.44,153.94 3392.84,49.37 2004.71,-142.02 6844.44,-53.79 7246.95,-49.8 1680.26,16.77 -84.76,-80.29 2733.42,-49.61 -19.21,27.55 -0.18,76.37 -8.35,108.14 -128.9,501.2 -1.96,337.12 -11.18,683.08 -3.19,119.76 0.35,92.12 -61.23,89.74 -631.53,-24.86 -8581.38,-15.68 -8585.53,-15.68 5.26,1.86 -3.33,-1.37 2.7,0.74 -462.83,-14.3 -926.26,-25.39 -1389.31,-28.12 2.88,0.67 1.79,0.6 2.98,0.77 -291.96,-18.12 -586.75,1.48 -878.15,21.5 -313.21,21.53 -628.31,-5.85 -941.76,-10.03 -2809.87,-37.23 -1962.4,0.78 -2643.97,-3.93 7.4,1.44 0.94,0.35 0,0.35 1.05,0.28 2.56,0.35 3.68,0.46 -206.32,-6.59 331.03,0.67 -2558.15,42.32 -24.55,-801.5 -56.64,-817.07 63.54,-820.72zm75.77 -27.91c154.08,-15.95 -75.88,-11.85 3016.3,-8.27 -2740.61,104.39 -2253.72,-26.23 -3016.44,20.62 1.93,-4.31 2,-8.45 0.14,-12.35zm3571.15 -369.07c0.6,98.61 7.53,196.41 11.92,294.49 -14.44,-0.28 -28.96,-0.25 -43.45,-0.39 11.36,-22.44 -9.6,-21.81 -20.51,-29.45 -11.82,5.26 -17.5,1.5 -17.05,-11.22 -16.44,-21.07 -31.77,3.79 -35.28,5.99 -1.51,2.94 -1.82,6.06 -0.91,9.32 -405.07,33.14 -236.23,1.02 -828.42,1.02 -1011.16,0 -883.17,53.48 -893.83,-28.3 -10.17,-78.2 -8.84,-158.64 -22.44,-236.2 43.97,5.22 1747.26,20.16 1849.97,-5.27zm-1591.64 -190.97c-3.9,1.4 -7.78,2.8 -11.68,4.24 6.98,-137.25 -7.81,-276.07 -7.71,-413.57 4.66,135.78 22.69,273.59 19.39,409.33zm1267.07 -1325.88c45.51,1.79 61.57,-14.09 93.94,97.31 0.03,0.07 0.03,0.11 0.03,0.11 0.14,0.45 0.25,0.81 0.39,1.26 90.89,291.85 -4.07,1328.04 27.98,1357.71 -698.87,19.14 -2.04,7.64 -760.93,2.21 4.21,0.81 4.21,0.87 0,0.28 1.23,0.07 2.46,0.21 3.69,0.49 -77.14,-5.29 -640.02,-0.35 -643.57,-0.28 5.76,-24.75 13.65,-48.84 21.25,-73.08 59.47,31.6 19.25,-27.91 -22.51,-1419.14 349.99,88.89 640.98,7.95 1279.74,33.13zm-942.57 -441.58c-2.87,-2.94 -3.51,-5.51 0,0l0 0zm-94.82 24.72c95.07,57.26 162.88,122.77 183.32,54.95 30.89,-102.46 -145.52,-217.41 -121.44,-262.23 142.44,174.36 168.21,148.58 196.3,461.4 -46.57,-18.16 -11.5,-64.13 -258.19,-254.12zm-75.32 117.82c6.21,-8.87 176.38,61.72 182.03,68.76 -59.93,-24.19 -120.87,-47.89 -182.03,-68.76zm-309.07 -55.09c50.12,-5.61 98.09,4.59 148.19,14.31 -48.68,-8.42 -98.99,-10.9 -148.19,-14.31zm198.93 -261.69c-97.58,-28.27 -64.94,-15.19 -207.45,-86.87 89.77,8.63 344.63,128.9 354.63,133.71 17.32,8.34 41.73,7.36 50.84,14.19 17.08,12.73 32.02,47.41 45.61,64.31 -106.87,-41.66 -153.72,-99.3 -243.64,-125.35zm71.47 71.81c9.02,4.24 17.49,9.4 25.36,15.51 -11.01,-0.43 -19.5,-5.58 -25.36,-15.51zm-589.32 -169.71c75.67,-2.63 149.32,11.01 218.22,42.99 -87.03,-13.25 -160.75,-25.87 -218.22,-42.99zm686.34 109.76c-58.1,-30.23 -141.8,-67.68 -225.54,-96.75 100.88,27.63 206.68,63.68 225.54,96.75zm-56.77 -541.03c290.45,280.14 252.5,254.93 287.22,396.21 21.25,86.23 36.36,168 42.92,256.93 -58.14,-148.85 -206.89,-517.96 -330.14,-653.13zm338.42 1057.34c-14.1,1.96 -16.87,-7.61 -17.99,-21.07 6.8,-2.95 11.89,-7.57 15.29,-13.86 0.84,11.64 1.75,23.29 2.7,34.93zm33.34 -720.33c-16.79,-30.61 -46.6,-66.77 -61.47,-148.57 26.2,53.16 45.83,102.46 61.47,148.57zm102.82 423.21c67.6,-2.59 67.39,-176.55 103.93,-219.72 -6.06,78.97 -113.89,510.07 -27.41,522.83 -43.42,-5.72 -89,-7.08 -132.63,-7.46 18.84,-81.18 -28.54,-530.86 -41.73,-588.4 -2.42,-10.7 -17.88,-43.97 -14.06,-54.95 4.91,-14.03 19.53,-8.88 21.14,-29.6 0.25,-2.94 0.21,-5.75 0.07,-8.52 76.09,253.74 15.15,388.74 90.68,385.83zm8.73 -330.67c34.4,-4.87 45.9,-263.13 46.96,-297.14 34.12,108.84 46.96,215.94 61.15,328.63 -48.67,-13.29 -88.74,64.8 -100.46,98.78 -1.57,-44.15 -9.57,-89.17 -18.69,-132.3 3.69,0.67 7.37,1.36 11.04,2.03zm493.91 -602.71c-57.5,133.42 -137.11,400.55 -173.26,541.1 -6.34,24.79 -53.12,153.83 21.46,131.81 -23.07,14.79 3.16,14.41 -36.43,85.66 -195.71,352.13 -104.99,488.15 -229.71,478.02 100.67,0 96.22,-719.2 417.94,-1236.6zm-52.08 -46.04c-60.03,91.7 -103.02,193.49 -143.52,294.94 31.42,-101.63 73.08,-216.5 143.52,-294.94zm-6.91 599.1c-20.13,31.38 -40.99,82.54 -72.76,104 25.95,-59.19 72.8,-108.98 72.76,-104zm78.13 78.41c139.53,-106.01 299.25,-240.17 475.22,-276.78 -317.38,163.34 -489.17,397.44 -492.71,400.45 -23.07,19.71 -56.18,30.89 -80.58,50.47 15.47,-20.06 138.79,-149.49 98.08,-174.14zm775.73 118.28c-59.26,6.98 -523.29,150.93 -554.11,147.42 -6.14,-0.71 -34.51,-39.59 -184.73,28.12 79.08,-136.75 507.69,-278.64 738.84,-175.54zm68.31 50.91c-0.64,0.29 28.44,-15.25 26.65,-15.71 71.85,19.42 -158.6,52.74 -180.52,57.22 35.46,-9.36 71.08,-18.05 106.46,-27.52 15.68,-4.2 32.58,-7.44 47.41,-14zm-113.86 221.23c-174.38,-27.38 -366.12,-4.7 -537.77,30.09 165.72,-113.09 -27.56,-86.83 244.13,-86.16 97.97,0.25 203.45,16.91 293.64,56.07zm-821.28 190.06c-0.03,0 -0.07,0.03 -0.03,0.03 -0.5,0.32 -1.19,0.71 -7.44,4.11 4.52,-4.24 17.29,-19.39 23.53,-13.71 -14.9,8.66 -15.4,9.11 -16.06,9.57zm-122.27 39.09c-42.71,-4.94 -86.05,-5.58 -128.97,-7.89 3.22,-7.78 6.38,-15.6 9.5,-23.42 50.8,16.9 43.27,-55.37 135.28,-198.19 33.42,-51.94 101.97,-132.66 142.86,-160.96 74.3,-51.51 41.06,-16.51 69.57,-20.93 -32.36,31.56 -152.75,128.38 -107.09,180.66 9.82,11.29 20.79,7.2 30.58,13.79 17.39,11.68 16.13,27.49 44.71,18.94 51.16,-15.36 135.64,-108.18 196.86,-78.86 -79.35,66.66 -401.57,189.56 -393.29,276.88zm472.02 84.69c5.92,65.53 9.29,131.29 10.94,197.03 -7.61,-71.25 -18.1,-145.41 -53.52,-208.85 14.27,3.58 28.44,7.68 42.57,11.82zm2147.96 1769.46c-4.38,-282.31 148.12,-159.02 1242.67,-153.38 -1.09,-0.28 -2.18,-0.52 -3.27,-0.77 156.3,9.99 1304.49,-42.08 1364.8,-28.96 12.87,2.8 26.19,12.44 39.45,12.38 12.41,-0.07 18.69,-10.24 28.96,-12.44 3.47,-0.74 67.85,-1.97 73.54,1.96 14.79,10.21 -2.77,83.47 17.95,122.6 7.92,14.93 26.9,17.7 28.37,29.48 -266.47,-2.66 -2611.22,90.79 -2615.35,90.93 -210.68,8.73 -175.86,19.85 -177.12,-61.79zm2609.5 -263.97c-1.26,19.6 -13.61,12.1 -31.46,11.5 -165.47,-5.4 -74.41,7.16 -500.32,4.2 148.05,-16.83 528.2,-15.84 531.78,-15.71zm-2457.91 -535.35c2.87,-66.62 -25.74,-23.95 710.4,2.29 1340.46,47.82 1674.29,-65.79 1710.47,-44.85 27.77,16.02 15.58,49.9 26.97,259.02 23.78,435.77 93.39,215.06 -573.33,299.64 -271.34,34.4 -172.6,42.57 -496.18,28.83 -264.68,-11.22 -890.07,0.91 -1011.79,-2.39 -90.16,-2.46 -179.89,-12.83 -270.15,-11.29 -25.81,0.46 -75.96,12.55 -83.5,-7.3 -9.82,-25.94 -2.87,-70.13 -5.54,-98.36 -7.37,-78.02 -20.06,-156.26 -20.59,-234.77 -0.43,-61.33 10.17,-120.52 13.22,-190.83zm2335.77 -78.75c-259.81,37.34 -1106.89,91.94 -1843.49,28.65 257.95,-4.91 805.75,20.34 1843.49,-28.65zm-1606.16 -112.14c52.32,-5.92 104.57,-11.22 156.74,-18.41 279.9,-38.68 570.63,-21.46 680.21,-364.48 90.43,-283.05 -55.75,-422.78 -52.31,-450.56 16.94,-13.04 30.19,-51.59 41.41,-70.66 -14.2,129.4 48.78,133.05 145.98,103.24 -4.34,408.16 101.97,376.19 260.75,447.27 289.71,129.71 135.99,361.46 135.91,364.96 -0.31,12.24 14.55,18.66 9.02,29.31 -5.15,9.86 -26.12,6.31 -38.4,7.3 -586.93,46.39 271.48,-8.7 -1562.43,23.36 54.42,-9.09 97.52,-57.09 223.12,-71.33zm677.27 -240.76c-92.08,105.27 -231.51,113.54 -361.74,128.73 -89.88,10.49 -178.62,28.79 -268.78,37.66 206.75,-78.65 449.23,-36.79 630.52,-166.39zm330.74 -571.47c6.38,-2.07 12.76,-4.07 19.17,-6.03 -3.26,9.02 -9.05,23.71 -15.04,62.74 0.21,-15.4 6.52,-43.9 -4.14,-56.71zm-94.75 -181.46c37.03,43.17 181.42,-52.32 241.88,2.04 53.06,47.68 -55.3,26.89 -69.96,69.14 -6.34,18.24 5.19,43.49 25.95,45.62 -3.09,4.77 -4.49,9.96 -4.14,15.54 -11.19,-76.59 -173.16,3.19 -209.41,6.31 -6.88,-48.78 -0.64,-93.25 15.68,-138.65zm-114.39 -209.66c-4.87,-120.52 62.7,-295.33 193.88,-324.04 108.53,-23.74 31.46,36.96 8.45,83.14 -35.56,71.29 149.56,97.98 -202.33,240.9zm1816.52 2236.37c-1.23,-0.28 -2.46,-0.57 -3.69,-0.81 76.41,1.72 152.82,2.76 229.16,4.66 -240.62,5.82 -481.66,11.5 -722.32,13.71 -1718.46,15.85 -2215.21,135.43 -2885.95,72.48 2165.49,-60.55 1559.2,-102.88 3382.81,-90.05zm1965.19 0.77c-98.26,4.35 -196.23,8.39 -294.59,7.75 98.22,-2.21 196.4,-4.98 294.59,-7.75zm-1660.89 -313.24c12.38,16.9 160.46,-7.78 335.96,-17.92 349.58,-20.23 395.62,1.26 972.38,5.3 -1.97,-0.35 0.77,0.21 -3.69,-0.81 195.28,17.95 430.96,-1.16 518.94,18.76 56.88,12.87 44.25,21.85 47.83,86.41 10.38,189.98 133.11,141.83 -277.83,154.25 -561.48,16.98 -1231.41,13.19 -1216.44,14.38 -389.65,-12.59 -339.65,8.94 -355.63,-51.66 -22.69,-85.73 -25.61,-145.73 -21.53,-208.71zm219.58 -82.93c-8.32,2.03 -17.33,1.64 -19.99,-2.15 2.83,-24.93 5.36,-49.93 6.7,-74.97 3.15,25.95 9.08,51.3 13.29,77.11zm-87.67 -981.78c-6.03,-77.14 -38.79,-39.17 350.66,-68.97 161.47,-12.39 326.95,-37.8 489.09,-24.26 336.64,28.08 535.95,-16.24 616.81,7.36 109.62,31.99 76.52,884.47 65.43,1014.14 -6.42,75.74 16.3,55.16 -45.38,58.32 -108.91,5.54 -905.3,-17.26 -909.05,-17.36 -605.06,-21.43 -392.04,179.43 -484.86,-466.41 -16.8,-116.53 -50.84,-230.11 -66.03,-346.67 -10.9,-80.23 -10.56,-77.56 -16.69,-156.15zm186.65 -439.13c39.1,24.29 107.87,69.46 144.51,17.74 15.58,77.42 32.54,265.34 20.27,276.74 -7.49,6.94 -58.52,7.3 -67.39,3.75 -60.98,-24.26 -82.93,-222.07 -97.38,-298.23zm87.49 -29.6c-18.69,-7.37 -35.83,-17.99 -52.74,-28.65 17.92,4.27 46.96,11.15 52.74,28.65zm410.8 270.95c0.14,-0.77 0.25,-1.57 0.43,-2.32 -0.08,0.78 -0.08,1.41 -0.15,2.18 -0.1,0.04 -0.17,0.07 -0.28,0.14zm142.79 -331.05c19.04,21.07 43.7,151.93 -72.23,44.18 -27.95,-25.95 -44.88,-47.48 -56.84,-82.44 50.32,18.9 103.41,9.85 129.07,38.26zm298.72 -150.75c-31.06,5.26 -73.98,3.29 -59.75,-24.62 3.79,-7.37 38.15,-33.84 43.34,-31.28 12.91,6.35 14.41,43.52 16.41,55.9zm-134.19 -262.47c24.05,8.95 48.53,18.34 66.98,36.75 -22.24,-12.48 -45.21,-23.42 -66.98,-36.75zm135 77.07c38.82,-77.1 -65.36,-126.86 -121.41,-145.56 64.7,0.25 127.54,-40.36 152.61,-100.7 -1.68,42.12 3.69,84.44 3.33,126.61 -0.7,85.28 -5.85,99.52 -2.35,98.85 -4.84,31.35 -4.91,64.38 -7.33,96.12 -77.32,-77.32 -321.59,166.45 -18.87,179.57 47.76,2.07 30.37,13.85 41.52,208 4.69,81.82 -0.71,163.87 7.64,245.43 -70.37,-5.29 -142.69,4.52 -213.45,2.49 55.54,-198.54 -22.65,-696.62 -25.28,-735.86 17.18,6.21 141.32,109.02 183.57,25.04zm434.04 1815.47c0.15,2.94 3.83,33.91 -1.5,34.11 -2.95,-4.87 1.43,-33.38 1.5,-34.11zm3919.45 443.12c-189.84,24.51 -384.67,13.12 -575.53,10.39 191.84,-4.01 383.69,-5.72 575.53,-10.39zm878.61 -296.34c3.47,-0.1 137.39,-19.32 147.81,0.5 6.87,13.04 -14.09,144.79 4,224.21 -315.8,-30.19 -2800.54,63.19 -2821.12,0.53 -3.65,-11.01 -7.44,-187.32 -7.4,-199.56 2377.89,-9.39 329.23,36.65 2676.71,-25.66zm-2431.22 -577.82c-7.68,-76.48 -2.59,-150.85 -5.72,-227.23 7.3,75.64 11.22,151.32 5.72,227.23zm35.62 -221.96c-12.41,-25.32 -10.83,-20.2 216.42,-17.43 604.33,7.34 635.75,-30.16 1024.98,-23.35 1135.26,21.11 1061.69,-26.55 1080.98,6.73 27.77,47.94 -5.99,571.37 28.83,730.84 -1884.75,61.08 -742.55,75.42 -1918.28,47.44 -140.83,-3.37 -439.34,10.8 -442.88,8.42 -4.31,-2.98 17.6,-630.87 17.5,-634.42 -0.82,-34.89 -14,-83.98 -7.54,-118.24zm1786.96 -127.54c507.22,40.19 553.45,-52.04 549.16,45.69 -10.9,-6.14 -763.56,6.48 -767.1,6.48 -179.7,0 -359.49,-11.21 -539.24,-8.87 -317.2,4.14 -198.33,33.81 -801.54,26.05 521.47,-9.92 1291.17,-90.54 1558.72,-69.36zm833.65 893.48c14.8,35.17 -6.24,100.01 -11.01,137.14 2,-45.51 10.21,-96.26 -1.68,-140.4 4.45,0.07 8.7,1.15 12.69,3.26zm858.48 849.16c-32.12,-102.43 -8.38,-160.57 15.33,-271.66 -0.36,91.84 -6.31,180.2 -15.33,271.66zm-423.49 424.3c391.06,7.22 377.1,4.23 383.13,6.48 93.58,34.54 -346.39,-2.62 -383.13,-6.48zm-2482 1863.82c-8.45,25.95 -2.62,19.92 -65.36,20.66 -1.51,-272.53 -16.94,-545.21 -16.03,-817.63 10.94,-6.84 12.14,-1016.25 7.57,-1053.59 51.48,0.11 102.96,0.32 154.4,0.42 -0.17,3.58 -3.01,1611.6 -80.58,1850.15zm-142.19 -492.15c6.98,153.94 6.63,308.44 8.31,462.55 -70.37,-175.4 -30.82,-265.73 -8.31,-462.55zm-26.93 -1357.3c38.43,-0.74 33.67,-42.74 27.84,495.76 -10.73,-164.64 -8.45,-332.04 -27.84,-495.76zm-2160.03 -41.48c481.81,-9.57 963.51,5.36 1445.32,10.13 -0.35,-0.17 -0.71,-0.35 -1.44,-0.77 104.82,4.94 210.36,4.38 315.24,4.45 -584.66,15.32 -1559.07,1.79 -1759.12,-13.82zm-7983.9 16.09c-67.46,-1.58 -725.96,-11.75 -725.79,-32.68 380.93,-3.19 760.9,11.47 1141.64,13.75 -1.26,-0.28 -2.48,-0.53 -3.72,-0.81 137.29,16.2 282.88,1.86 421.46,0.14 -185.19,4.8 -518.17,26.86 -833.59,19.6zm-815.66 1931.82c-263.24,-32.2 -155.87,95.65 -183.08,-468.13 -15.01,-310.72 43.52,4.73 12.45,-1460.63 58.76,1.96 117.43,4.59 176.17,7.12 -87.49,748.52 10.94,1815.89 -5.54,1921.65zm-2739.28 -1922.66c104.07,-7.68 208.04,-11.36 312.4,-10.42 -1.9,-0.32 -1.9,-0.42 0,-0.32 -4.24,-0.1 -15.65,-2.84 15.5,0.14 -26.4,1.9 -205.28,16.69 -327.9,10.6zm3102.31 -4272.82c-2.87,4.98 -5.72,9.93 -8.6,14.91 0.53,-4.45 -0.07,-8.77 -1.85,-12.98 3.47,-0.63 6.94,-1.29 10.45,-1.93zm2377.11 2489.26c-4.38,-14.34 -8.81,-28.65 -13.29,-42.95 5.12,0.74 10.24,0.56 15.36,-0.46 -0.53,14.44 -1.08,28.96 -2.07,43.41zm1547.84 -962.8c7.57,13.29 12.77,28.51 17.96,42.85 -8.63,-17.29 -12.73,-27.29 -17.96,-42.85zm-394.73 -132.3c-16.12,-0.91 -32.99,2.25 -48.78,7.33 -5.44,-27.11 -8.8,-19.78 4.8,-41.59 3.51,-5.68 1.26,-14.94 5.3,-17.7 14.23,-9.72 67.43,-11.01 83.22,-5.41 -49.62,-1.89 -66.77,32.75 -44.54,57.37zm-13.11 293.78c-6.88,12.31 -43.03,39.72 -59.65,32.64 -18.44,-7.85 -9.15,-45.94 0.46,-61.72 12.73,-20.83 43.8,-25.04 46.18,-54.99 1.58,-20.2 -10.31,-34.82 -29.66,-39.13 -17.57,-3.93 -37.8,19.11 -46.57,17.3 -30.2,-6.35 31.95,-64.1 38.33,-75.26 18.44,37.1 90.92,109.34 50.91,181.16zm-122.87 -228.18c-17.64,16.41 -8.42,6.17 -28.02,6.52 -78.76,1.3 -76.66,37.18 -109.51,38.02 3.47,-21.68 76.3,-126.14 -43.24,-109.2 29.95,-23.07 101.55,-80.3 144.09,-56.81 11.14,6.17 56.81,65.33 58.1,82.12 1.93,24.69 -3.44,22.4 -21.42,39.34zm-87.95 -273.13c25.5,17.53 48.91,37.56 75.29,53.9 -33.45,11.92 -20.41,38.22 -127.64,-12.35 2.07,-0.84 46.57,-22.69 52.35,-41.56zm417.32 -152.11c-12.44,-1.72 -10.59,-3.33 -5.79,-13.08 2.77,3.93 10.45,14.62 5.79,13.08zm-493.2 1.19c-13.43,-17.19 22.86,-50.18 -4.28,-76.41 251.71,-70.31 198.41,-14.27 242.59,46.5 -13.96,0.63 -232.87,36.92 -238.31,29.91zm515.88 -282.17c-13.04,-53.52 -26.86,-101.03 29.67,-134.97 15.64,39.06 -14.3,93.28 -29.67,134.97zm682.28 254.43c-9.74,-28.47 -70.31,-41.62 -71.5,-48.71 62.21,-65.88 205.07,-63.54 71.5,48.71zm-16.19 327.94c-1.86,-8.84 1.96,-56.84 -0.6,-52.6 23.03,19.96 65.29,6.53 66.84,-26.47 1.26,-27.49 -23.61,-15.61 10.24,-64.52 12.79,-18.48 29.77,-37.24 48.18,-50.15 31.14,-21.88 29.42,-9.64 46.81,12.66 23.25,29.8 54.5,17.53 84.41,33.31 -51.48,69.08 -154.74,124.45 -158.07,215.62 -1.55,42.89 21.21,77.18 70.72,75.85 46.08,-1.22 6.24,-35 116.07,16.73 -104.6,31.63 -194.47,-24.97 -285.54,-67.26 13.05,-10.83 23.15,-26.75 23.78,-43.89 0.91,-23.32 -19.28,-32.51 -22.82,-49.27zm1793.26 -172.21c32.75,46.57 56.11,107.23 80.72,158.6 -109.72,-48.42 -117.93,-113.47 -80.72,-158.6zm309 -215.37c52.7,5.61 196.93,39.73 198.97,108.84 -66.07,0.56 -144.41,-64.63 -198.62,-97.7 -0.1,-3.71 -0.24,-7.43 -0.35,-11.14zm-278.74 -306.02c25.94,-48.04 61.33,-57.19 114.63,-59.33 -39.62,30.61 -74.37,47.44 -114.63,59.33zm152.85 -851.36c6.45,-67.96 -27.98,-117.79 84.62,-152.01 -21.07,54.1 -50.01,105.47 -84.62,152.01zm-82.72 88.23c40.85,-75.43 -199.25,-69.72 -226.52,-82.48 172.28,-219.72 222.73,55.97 262.32,55.97 -14.27,0 -27.8,16.79 -35.8,26.51zm237.12 123.74c-25.66,-15.43 -51.09,-30.4 -75.26,-48.25 17.23,8.7 55.97,29.74 75.26,48.25zm350.02 1315.43c-2.52,-36.4 -84.89,12.69 -24.79,-107.9 15.36,29.27 37,57.02 24.79,107.9zm79.46 -254.44c9.86,-17.6 73.01,-93.07 69.57,-76.3 -14.06,30.58 -30.23,75.29 -69.57,76.3zm220.53 -830.92c-16.19,27.25 -37.06,54.1 -61.43,74.55 1.68,-42.25 38.47,-72.97 61.43,-74.55zm-225.72 479.38c37.84,-33.1 66.84,-69.85 116.84,-85 -0.5,20.62 0.14,41.31 0.28,61.93 -43.93,-6.17 -75.08,18.52 -117.12,23.07zm128.07 -993.03c-8.03,22.27 -17.96,43.7 -27.99,65.09 7.79,-22.28 15.08,-43.45 27.99,-65.09zm-119.58 581.26c3.12,-0.15 6.03,-0.22 7.26,0.07 -2.42,-0.04 -4.8,-0.04 -7.26,-0.07zm-199.42 -449.03c-28.33,-17.81 36.86,-50.66 163.87,-16.9 -104.82,11.15 -141.32,31.07 -163.87,16.9zm527.53 197.88c-9.64,-27.29 44.92,-59.4 63.85,-73.64 -5.4,28.65 6,48.88 -63.85,73.64zm175.72 -116.07c3.9,-27.46 8.49,-20.06 38.26,-25.15 24.72,-4.17 42.88,-7.4 66.73,5.76 -19.67,25.07 -43.1,40.01 -72.8,51.23 -48.42,18.2 -38.85,8.24 -32.19,-31.84zm31.81 774.92c-9.47,1.44 -26.87,-0.28 -26.73,-4.56 8.99,1.09 17.89,2.63 26.73,4.56zm-15.58 566.98c14.17,7.33 26.16,23.92 31.77,40.99 -9.28,-8.1 -39.58,-30.23 -31.77,-40.99zm172.39 -335.93c11.54,-19.68 52.17,-38.89 71.68,-20.42 26.47,25.11 21.56,101.1 23.63,134.9 -44.28,-71.12 -113.54,-83.46 -95.3,-114.49zm90.54 232.79c-5.44,9.93 -10.49,19.99 -15.4,30.2 -2.7,-23.5 -4.49,-21.07 15.4,-37.31 0,2.39 0,4.77 0,7.12zm137.03 40.16c-5.65,70.69 -64.45,42.21 -62.17,-90.86 0.53,-20.06 70.28,-10.27 62.17,90.86zm2052.41 770.53c-106.88,9.85 -80.02,-31.35 -43.27,-121.99 16.48,-40.67 33.1,-81.67 55.23,-119.72 24.26,78.48 121.47,229.36 -11.96,241.71zm-251.56 -163.58c-39.8,15.99 -114.95,34.72 -156.39,14.69 7.12,-45.1 158.53,-138.4 326.15,-162.32 -50.15,64.87 -92.72,116.63 -169.75,147.63zm382.14 -610.71c-24.29,110.81 -90.53,219.37 -135.77,322.82 -40.05,-164.43 -19.85,-263.91 135.77,-322.82zm925.22 -774.89c62,-43.02 234.69,-9.85 334.35,119.76 59.93,77.99 53.45,182.52 25.04,209.06 -7.96,7.44 -20.06,16.56 -29.28,23.18 -17.32,12.45 -6.2,11.79 -26.12,6.88 -66.77,-16.34 -89.28,-146.61 -303.98,-358.87zm597.1 574.53c42.21,89.34 -68.42,150.96 -135.67,-3.58 -20.34,-46.82 -46.85,-97.45 -54.6,-148.36 54.25,41.27 160.36,88.67 190.27,151.94zm46.6 -469.05c58.64,-19.42 52.08,38.65 168.1,119.19 30.65,21.28 42.96,40.33 33.67,82.44 -3.65,16.3 28.16,18.23 -95.62,32.82 -99.84,11.75 -193.49,-9.15 -292.55,-17.19 34.5,-95.59 88.67,-184.9 186.4,-217.27zm320.25 934.86c206.65,-92.4 227.09,92.85 263.35,177.29 -39.69,-22.61 -206.71,-84.3 -263.35,-177.29zm-2.66 -4.53c-0.14,-0.6 2.22,-7.08 0,0l0 0zm398.91 303.85c49.66,-3.76 284.32,90.32 261.24,155.05 -8.17,22.87 -129.39,-17.32 -151.51,-21.17 -38.05,-6.67 -176.7,17.74 -171.65,-56.21 1.72,-25.22 40.75,-76.06 61.93,-77.67zm280.6 -207.14c-37.56,80.2 -196.9,80.97 -270.22,88.41 26.29,-38.79 87.52,-172.53 270.22,-88.41zm-20.93 371.87c1.68,-5.72 0.67,-2 0,0l0 0zm-13235.82 4219.51c0.94,12.24 1.04,24.33 1.01,36.54 -4.17,-9.53 -2.98,-18.73 -1.01,-36.54zm-2824.03 -1868.91c10.35,-4.14 16.02,-1.36 17.05,8.35 156.56,78.37 1217.48,-80.79 2795.76,-33.25 17.15,-5.47 23.14,-0.03 17.99,16.24 9.6,27.91 26.51,1286.39 -38.62,1798 -25.73,202.36 15.51,181.46 135.07,178.83 413.64,-9.21 175.09,142.97 223.69,-1851.23 3.83,-157.13 -22.4,-130.72 123.89,-122.34 1067.44,61.01 1596.26,-57.06 5601.35,-21.64 757.74,6.7 1392.05,66.6 2408.85,4.7 461.32,-28.09 576.59,98.19 2648.8,25.21 75.56,-2.66 58.32,-21.98 64.77,66 116.49,1588.9 -96.68,1447.16 32.12,1768.47 20.41,50.99 43.31,99.41 103.86,102.04 186.23,8.06 157.28,-12.58 158.92,-211.55 4,-480.96 70.45,-625.47 55.79,-1478.87 -5.33,-308.54 -23.04,-249.13 150.61,-251.03 2614.54,-28.44 2595.09,115.44 2645.58,11.4 34.78,-71.68 24.47,-170.28 22.02,-250.52 -3.61,-117.86 20.02,-232.87 23.67,-350.06 0.53,-17.22 4.49,-342.63 -12.24,-367.13 16.45,-0.53 13.33,-51.48 15.4,-67.33 -146.5,-3.12 -291.82,-19.07 -438.71,-19.56 -165.34,-0.57 -329.8,17.32 -494.68,16.44 12.39,-45.45 14.41,-95.51 20.52,-142.15 4.98,-38.16 25.46,-107.09 -0.1,-140.97 -30.79,-40.74 -214.71,-20.17 -226.56,-51.37 -10.87,-28.69 2.48,-80.03 0.77,-111.3 -0.21,-3.51 -34.33,-344.53 -25.14,-530.37 8.56,-173.65 10.52,-203.95 -16.17,-225.05 -51.3,-40.61 -304.05,-1.16 -420.22,-6.38 -166.56,-7.47 -240.49,-12.25 -268.82,-15.12 -32.4,1.76 -107.13,3.86 -262.47,5.72 154.29,-176.87 414.97,-278.21 649.04,-281.68 -79.57,108.84 -31.21,184.38 69.96,209.03 38.86,9.46 78.61,-2.59 118.07,4.41 45.48,8.14 90.05,23.14 136.2,27.77 100.18,10.1 106.94,-86.16 65.36,-153.59 -37.37,-60.62 -177.61,-111.89 -245.98,-130.76 109.8,-13.08 283.26,-38.99 295.6,-148.85 4.7,-41.8 -27.66,-59.4 -61.5,-72.37 -237.82,-91.11 -307.04,88.4 -352.84,143.24 -46.43,-98.68 -70.14,-326.79 -335.97,-237.47 -94.18,31.6 -68.62,101.42 -13.57,160.75 61.01,65.71 146.26,92.39 223.26,134.27 -127.74,9.99 -391.71,99.37 -544.15,243.35 -141.69,133.88 50.12,90.61 -525.84,131.15 -14.66,-505.61 -31.98,-792.41 241.74,-1192.48 99.24,463.26 417.75,273.2 312.02,91.7 -37.31,-63.99 -107.73,-105.54 -168.46,-143.7 530.86,61.27 427.76,-77.03 426.06,-118.94 -4.24,-104.28 -47.2,-86.68 -122.03,-157.97 -30.86,-29.39 -57.96,-74.13 -102.22,-83.43 -94.82,-19.92 -202.33,86.4 -246.01,158.32 -46.75,-215.09 -357.15,-345.68 -485.91,-243.75 -74.23,58.8 9.43,103.87 120.87,237.68 64.28,77.17 105.83,190.93 200.58,235.84 -108.73,170.21 -190.83,370.37 -213.44,452.5 -49.94,181.05 -29.77,757.95 -31.39,761.53 -8.87,19.88 -177.99,23.49 -192.48,21.42 -110.27,-15.84 4.38,-358.83 -559.01,-458.77 -100.32,-17.77 -207.07,-26.93 -307.07,-1.26 -23.71,-38.86 306.16,-526.09 95.44,-491.48 -78.79,12.94 -169.37,85.8 -197.94,160.11 -36.86,95.69 -7.96,206.67 15.19,301.71 -131.78,-0.6 -401.79,114.45 -417.47,223.72 -15.64,109.41 235.09,127.96 391.51,-43.41 -25.25,57.05 -74.59,141.9 -54.14,206.25 34.72,109.23 368.79,105.62 245.71,-183.04 -15.68,-36.75 -24.51,-76.66 -41.37,-112.56 151.06,-25.98 380.64,21.39 468.76,62.17 192.69,89.2 216.74,244.51 262.36,337.57 -121.16,2.77 -242.17,13.93 -363.53,17.05 -376.4,9.75 -310.43,-69.29 -292.06,394.04 3.48,86.99 -3.72,173.82 5.16,260.67 28.44,278.78 -2.7,230.1 -51.76,229.4 -240.49,-3.47 -215.8,-10.53 -204.05,76.76 9.15,68.07 -7.75,139.04 2.32,207.9 -184.55,-9.21 -1315.36,-34.57 -1766.58,-35.72 10.76,-23.71 -12.83,-84.44 -15.68,-111.38 -4.56,-43.62 1.75,-88.99 -5.82,-132.09 -18.94,-107.83 -111.69,-78.93 -194.79,-76.48 0.25,-25.8 -22.34,-896.04 -72.83,-1041.07 -31.52,-90.47 -32.96,-100.08 -157.52,-105.48 194.06,-626.34 118.22,-386.15 176.49,-492.49 15.71,38.08 78.75,46.39 110.35,28.3 98.7,-56.39 36.68,-322.61 -85.18,-288.98 -2.43,-46.88 -5.44,-114 -39.45,-150.57 -36.82,-39.55 -96.79,-35.1 -138.09,-7.64 -156.68,104.21 21.21,179.67 66.66,244.83 -105.41,70.62 1.33,136.61 -29.53,235.5 -154.11,493.66 -112.95,436.89 -180.41,435.31 -25.84,-0.6 -27.42,2.56 -30.71,-24.3 -0.53,-4.55 -12.66,-374.81 -12.28,-401.46 23.99,39.09 103.17,66.1 128.48,16.66 25.39,-49.62 -14.8,-119.05 -53.82,-148.79 55.82,-58.97 -42.54,-112.38 -92.08,-76.87 14.86,-84.05 12.31,-179.19 8.84,-264.71 35.14,43.77 140.79,21.04 68.83,-105.83 40.22,-9.81 85.18,-57.93 57.64,-100.11 -25.46,-38.92 -99.87,-47.07 -140.36,-34.08 22.16,-43 -0.53,-426.23 17.81,-447.1 3.26,-3.68 100.64,-26.01 50.04,-155.65 59.19,-12.98 178.38,-81.82 136.06,-156.02 -21.43,-37.62 -80.17,-51.97 -119.69,-46.49 -118.66,16.34 -93.03,27.59 -106.28,34.32 -6.88,3.48 -7.68,-5.95 -51.34,21.25 -84.4,52.53 -178.8,124.38 -121.22,205.84 31.24,44.22 92.46,17.36 127.53,-7.4 28.3,72.65 13.96,73.43 8.06,204.01 -4.76,106.68 3.72,214.01 1.19,294.52 -7.22,1.37 -14.51,2.07 -21.91,2.07 -13.37,5.86 -26.94,7.89 -40.37,14.73 -92.54,47.06 -94.26,130.97 49.79,101.97 -0.94,23.39 16.31,45.65 12.8,68.17 -28.51,-60.98 -175.36,-16.48 -215.87,-6.35 54.18,-113.02 -10.1,-161.61 -22.51,-212.18 -8.24,-33.42 -6.31,-53.79 -14.3,-162.11 10.21,-3.12 10.66,-6.03 30.78,-23.74 229.82,-202.37 41.1,-265.07 -64.02,-156.64 -9.5,-65.85 -23.68,-29.77 -28.59,-204.02 24.97,27.46 89.99,-0.77 54.36,-71.22 40.74,-9.99 97.41,-17.45 125,-50.98 41.13,-50.01 -10.21,-125.32 -115.96,-86.33 122.41,-226.85 -93.49,-282.11 -137.53,-17.08 -62.06,-53.13 -308.34,-54.85 -298.66,60.69 10.56,125.92 195.84,62.52 268.85,57.54 -35.62,35.91 -88.05,65.57 -98.63,119.51 -12.21,62.27 68.62,96.12 135.31,18.62 -2.59,76.06 22.13,144.69 35.21,218.5 -39.91,-48.25 -125.39,-25.77 -170.49,3.96 -56.21,37.04 -19.21,90.65 36.5,102.82 40.33,8.77 82.55,2.28 123.36,5.72 47.23,3.97 34.51,15.88 38.12,61.93 12.9,166.31 26.16,111.55 -36.86,140.79 -174.07,80.75 -225.26,258.4 0.78,193.77 36.33,-10.38 37.17,-9.43 51.37,24.3 43.8,103.94 78.93,23.07 230.97,23.07 -33.24,44.64 -111.3,58.6 -165.86,50.15 -25.66,-4 -17.63,-30.75 -78.75,12.17 -83.7,58.8 -231.3,182.38 -147.77,240.7 79.42,55.47 149.27,-29.24 179.95,-93.35 1.72,75.6 12.83,149.03 30.72,222.29 15.84,65.08 23.84,512.94 -4.31,533.8 -5.3,3.9 -30.93,-2.91 -37.04,-3.51 -173.82,-17.11 -72.12,37.98 -128.26,-251.95 25.87,43.13 146.3,74.41 173.01,-31.24 42.32,-167.34 -146.72,-176.98 -152.68,-180.2 -36.15,-19.71 14.12,-2.07 -42.6,-114.21 -14.24,-28.16 -28.48,-85.6 -67.54,-86.62 -44.6,-1.19 -68.83,68.28 -81.78,101.31 -25.18,64.41 -18.23,113.78 46.01,146.5 -32.2,25.57 -123.36,121.61 -67.71,160.81 41.8,29.49 83.98,-28.68 111.65,-55.02 17.29,92.19 35.46,179.37 32.05,273.66 -0.1,0.07 0,0.11 0,0.14 0,0.11 0,0.18 0,0.25 0.11,-0.04 0.04,-0.04 0.14,-0.11 0.08,0.04 -0.03,0.11 0.15,0.11 0,-0.07 0.03,-0.14 0.03,-0.21 0.18,-0.11 0.21,-0.15 0.32,-0.22 -3.3,41.45 16.8,19.43 -265.45,49.06 9.21,-252.68 -70.45,-494.82 -118.29,-740.69 267.21,197.1 344.99,-36.51 130.73,-129.26 -169.34,-73.36 -116.25,46.39 -154.4,-241.88 134.9,110.98 206.26,22.72 120.03,-41.45 -28.9,-21.5 -56.04,-43.73 -83.59,-66.95 154.43,-29.1 46.99,-144.68 -59.58,-121.15 -0.18,-150.82 -42.53,-301.54 -70,-448.64 258.76,228.25 317.03,-67.43 7.02,-136.02 139.94,-163.19 188.2,-346.8 13.11,-284.17 -59.15,21.18 -108.56,58.39 -113.54,125.39 -124.66,-166.42 -386.81,69.96 -284.73,146.47 37.94,28.47 97.27,23.25 142.01,28.72 -185.71,90.29 -155.76,256.72 22.58,140.16 -35.1,39.55 40.57,125.57 150.47,11.29 20.23,138.5 24.3,45.13 59.4,366.75 18.45,168.73 -3.44,99.94 -113.36,121.08 -197,37.91 -197,343.85 103.09,113.57 8.49,-6.45 17.37,-18.86 27.11,-15.36 3.51,1.3 50.78,286.53 23.99,318.16 -6.94,8.2 -18.27,8.77 -25.25,20.48 -9.57,16.02 -11.11,27.25 -24.44,43.7 -31.06,38.4 -123.15,117.78 -90.5,171.92 42.96,71.22 137.78,-34.18 160.25,-73.64 13.89,102.32 43.38,205.59 65.43,306.16 -36.75,-26.65 -86.09,-36.68 -130.73,-37.8 -39.41,-0.98 -19.63,2.66 -60.24,-78.79 -70.69,-141.8 -85.42,-191.81 -132.73,-196.5 -78.68,-7.79 -104.81,115.01 -87.52,170.52 25.25,81 101.86,106.01 170.59,139.71 -25.35,25.87 -140.08,97.48 -93.86,140.47 29.38,27.31 120.94,-3.86 148.53,-23.95 17.53,93.03 23.18,199 75.15,280.62 -84.22,3.3 -257.73,-35.65 -267.41,87.24 -11.89,150.86 78.65,542.51 80.44,762.76 0.14,19.53 -0.25,264.6 -15.47,276.67 -21.14,16.76 -139.46,-20.17 -195.17,40.92 -10.97,11.99 -17.95,2.66 -17.15,27.07 0.7,21.82 13.78,44.71 16.09,66.84 6.8,66.17 13.04,127.15 31.42,191.67 -297.64,-23.35 -885.17,5.51 -900.11,-12.07 -39.66,-46.67 31.56,-193.77 -51.19,-215.94 -28.58,-7.67 -35.53,16.03 -109.06,-27.98 -38.64,-23.18 -5.01,4.35 -26.51,-228.81 -49.65,-538.71 68.63,-433.34 -347.29,-441.3 25.61,-95.44 57.06,-196.15 6.88,-289.64 -41.77,-77.85 -114.42,-136.93 -194.97,-171.5 -220.25,-94.47 -203.13,-89.7 -180.91,-302.76 10.28,-98.57 32.93,-104.11 31.25,-132.09 2.17,21.88 24.19,20.16 38.4,27 13.89,6.63 16.51,12.41 30.44,23.11 203.98,156.63 486.43,89.63 427.52,-6.59 -34.99,-57.23 -141.17,-66.77 -197.31,-91.67 37.48,-60.04 228.94,-178.55 121.92,-250.44 -19.22,-12.91 -44.85,-9.43 -62.74,-19.96 -17.01,-9.99 -73.32,-120.69 -193.74,18.38 -23.46,-35.84 -58.35,-6.73 -62.97,22.97 -0.78,5.08 5.58,104.14 8.06,104.14 -24.23,0 -16.69,-83.14 -215.2,-36.72 76.8,-38.39 48.39,-134.23 -26.19,-152.89 12.65,-5.65 24.68,-13.25 35.8,-21.56 -7.96,68.63 81.21,7.26 100.35,5.19 23.92,-2.63 4.2,-0.71 22.31,7.78 68.34,32.09 8.17,45.97 47.83,66.56 36.29,18.83 88.85,-43.35 113.43,-64.7 215.84,-187.25 -23.6,-245.61 -116.76,-190.2 -88.09,52.39 -47.23,94.37 -123.33,131.4 26.8,-27.74 36.3,-70.24 30.41,-97.55 -2,-9.26 -21.18,-33.56 -20.34,-39.1 1.58,-10.66 25.7,-29.98 31.77,-39.55 133.56,-210.75 -307.67,-225.44 -366.27,182.55 -39.16,272.78 156.33,80.2 230.07,126.76 36.72,23.15 -36.93,42.82 -60.11,108.15 -46.95,-40.78 -124.48,81.04 -141.48,110.35 -124.31,-216.6 -65.19,-210.79 -58.32,-295.81 6.49,-80.37 52.32,-147.14 -54.28,-197.74 -77.84,-36.92 51.97,-144.26 19.99,-253.24 -34.61,-118.04 -187.36,-31.03 -183.04,86.86 1.15,31.24 18.16,137.21 71.5,106.18 -10.31,27.74 -4.2,68.35 13.4,92.36 17.01,23.22 42.99,20.79 63.71,36.51 31.95,24.12 0.17,79.92 0.14,115.4 -27.42,-44.96 -48.57,-91.42 -90.36,-125.47 -59.37,-48.39 -161.79,-77.6 -212.61,0.84 -61.93,-93.55 -188.87,-60.91 -277.3,-32.71 -41.45,13.18 -134.23,37.48 -87.56,99.09 4.38,5.79 16.45,11.11 19.15,16.52 3.93,7.85 -12.59,57.4 24.22,87.49 60.14,49.08 368.65,-42.05 429.48,-36.65 18.34,1.61 14.77,1.93 29.78,16.66 20.48,20.06 102.92,63.99 131.7,44.95 -48.98,61.44 -11.75,160.18 19.85,220.08 -54.85,-21.89 -118.38,-24.69 -174.28,-6.88 47.22,-38.5 -44.89,-54.07 -173.12,-126.2 -42.74,-24.02 -99.2,-87.35 -149.76,-87.42 -40.09,-0.04 -45.42,27.31 -69.47,50.01 -3.65,3.43 -144.72,69.36 4.98,132.16 -126.72,55.43 -128.13,167.19 -38.12,169.85 -21.98,33.28 -17.49,75.5 17.46,96.75 17.05,10.35 32.33,6.24 49.09,11.12 15.36,4.48 27.88,19.67 45.51,25.07 26.76,8.24 49.2,-9.46 73.12,36.33 16.48,31.63 -24.51,94.04 22.13,136.13 57.4,51.79 160.74,-4.24 179.54,-67.33 40.92,-137.24 -38.4,-175.25 -61.4,-240.96 28.65,-0.82 87.56,-17.78 50.98,-58.11 41.1,0.84 78.45,-20.93 119.19,-20.75 89.35,0.45 170.46,57.78 176.18,77 2.14,7.15 -0.78,23.74 2.07,35.31 17.7,72.87 135.84,234.24 46.6,416.86 -41.73,85.38 -132.16,131.33 -235.15,159.66 0.25,-0.07 0.53,-0.14 0.7,-0.17 -2.1,0.56 -2.21,0.6 -1.71,0.45 -101.03,27.67 -213.91,38.58 -304.87,53.02 -214.46,34.16 -576.79,230.6 -580.79,231.83 -37.21,11.46 -349.37,-6.81 -373.7,-0.5 -42.99,11.15 -37.17,44.78 -40.67,47.51 4.24,-3.33 -26.19,5.23 -29.31,6.42 2.24,-0.87 -23.92,14.69 -22.48,12.83 -20.82,26.72 4.17,61.83 15.81,100.6 29.24,97.2 21.07,200.86 31.81,301.89 23.25,219.3 39.8,180.55 -68.69,201.1 -177.54,33.63 -82.51,135.28 -80.82,308.89 -324.22,-15.12 -1814.03,-36.15 -1818.03,-39.77 -5.61,-5.05 -12.24,-261.13 -12.44,-272.21 -1.4,-66.06 -6.27,-46.32 -34.79,-67.36 -50.77,-37.44 -29.8,-14.06 -145.87,-17.36 20.86,-251.88 1.29,-512.94 3.97,-767.24 -11.75,-1.22 21.7,-631.49 -10.42,-712.95 -18.27,-46.33 -74.2,-38.26 -115.68,-39.1 -88.79,-1.72 -176.21,-7.74 -265.14,-4.34 -0.46,0.46 17.6,-17.5 16.76,-17.22 64.45,-60.45 319.42,-166.92 709.74,-145.39 155.05,8.6 207.48,28.34 215.69,-22.75 12.35,-77.04 -217.59,-142.83 -293.61,-156.26 220.67,-57.65 280.04,-39.76 320.29,-78.89 75.7,-73.54 -162.01,-272.29 -725.17,-128.87 -23.74,6.03 -39.69,-1.68 -63.58,3.58 15.61,-24.62 192.62,-187.88 380.36,-284.63 156.85,-80.79 222.5,-101.79 201.95,-133.56 -11.12,-17.19 -23.25,-3.12 -36.65,-9.02 -171.36,-75.49 -492.39,138.26 -641.67,250.34 7.19,-29.6 17.29,-75.92 -18.55,-90.96 -38.86,-16.27 -78.48,26.12 -106.5,45.79 55.27,-147.77 81.32,-305.74 143.42,-451.4 50.15,-117.65 219.23,-285.16 21.67,-228.99 -236.77,67.36 -340,466.31 -394.07,705.08 -8.38,-103.38 -46.22,-200.72 -76.84,-298.94 -32.64,-104.64 -62.09,-325.3 -141.32,-229.78 -25.25,30.51 3.34,68.45 5.69,177.08 2.11,96.88 -17.05,193.46 -29.84,289.08 -53.13,-165.05 -237.16,-383.48 -194.38,-137.32 -126.24,-171.78 -355.35,-306.48 -406.51,-274.46 -105.34,65.89 186.33,106.64 359.64,614.39 -40.54,-48.84 -91.56,-93.38 -140.37,-134.44 -19.53,-16.38 -48.98,-30.55 -66.2,-0.91 -14.73,25.36 8.69,61.47 19.49,85.28 -271.37,-130.41 -388.07,-87.91 -540.12,-84.62 -32.02,0.67 -134.06,-5.85 -104.82,53.41 -49.48,3.97 -71.29,48.57 -18.3,70.69 140.86,58.84 269.76,17.71 447.96,108.22 17.53,8.87 73.7,27.14 81.43,44 5.36,11.82 -10.18,27.08 2.59,46.32 10.03,15.08 -27.81,-25.35 168.66,123.61 -536.68,-199.07 -824.15,78.51 -609.79,79.92 74.87,0.49 151.59,17.11 226.74,24.33 298.48,28.58 242.02,-5.51 472.34,78.02 116.39,42.22 114.07,28.27 132.9,94.19 -53.65,-0.71 -107.51,4.91 -161.06,6.87 -121.01,4.45 -307.24,-47.97 -341.05,-22.34 -11.5,8.73 -16.48,28.86 -21.21,37.87 -4.38,8.31 -9.96,8.84 -12.62,20.93 -3.26,14.97 8.73,42.99 11.39,57.51 14.09,76.37 39.63,1404.42 22.31,1435.42 -16.84,30.06 -168.42,-8.17 -196.79,-0.7 -37,9.78 -18.98,26.89 -24.44,50.52 -3.3,14.23 -19.56,25.98 -21.95,42.68 -3.09,21.56 10.93,237.01 13.04,258.75 -438.78,-0.56 -870.9,5.33 -1307.82,4.73 1.08,0.21 2.18,0.46 3.26,0.71 -85.27,-6.03 -504.31,-7.16 -557.09,4.11 -78.06,16.62 -60,281.68 -60.21,429.87 -0.78,561.82 -10.03,560.2 70.03,560.66z" />
    <path class="fil0 str0" d="M27790.93 2480.44c69.78,-3.72 -56.96,-5.72 0,0l0 0z" />
    <path class="fil0 str0" d="M36503.5 12683.94c0.7,-14.03 -0.35,11.29 0,0l0 0z" />
    <path class="fil0 str0"
      d="M38180.69 22517.04c-12.27,40.29 16.49,13.71 -410.62,-2.91 -725.86,-28.23 -2244.91,-134.62 -2704.63,-51.09 -167.96,30.51 1.05,67.54 -353.46,9.75 -7.71,-225.8 -154.65,-82.12 1325.49,-113.54 547.02,-11.61 390.63,-9.68 437.97,8.42 18.94,7.15 23.49,-4.17 37.87,-10.28 76.09,-32.64 633.28,10.79 889.97,11.11 324.71,0.43 122.73,-11.71 531.95,7.33 84.51,3.94 241.25,-16.58 252.82,-4.34 10.53,10.83 -2.1,127.71 -7.37,145.56zm-3277.25 42.67c219.87,-40.29 -48.74,-85.45 940.82,-85.77 460.06,0 2218.61,96.85 2222.12,97.24 -6.31,0.49 -2124.29,8.98 -3162.95,-11.47zm-189.7 -31.14c26.3,6.21 99.59,-10.62 126.59,5.55 9.12,5.58 5.62,17.22 18.59,23.85 -49.44,-2.36 -143.42,-5.12 -145.17,-29.39zm-62.06 -232.13c-1.4,-58.07 -21.04,-69.29 138.51,-67.89 284.73,2.48 1135.08,33.52 1408.59,55.64 -10.17,45.49 -1501.17,-40.29 -1547.1,12.25zm1537.64 -2748.57c12.28,645.03 30.16,2696.95 6.31,2695.09 2.8,-9.54 -1.05,-943.2 -2.46,-1066.53 -7.71,-641.35 -54,150.08 -3.86,-1628.56zm80.3 -11018.54c192.85,-5.05 170.06,-13.92 173.57,22.79 30.16,300.69 147.98,6024.95 -19.28,10627.1 -44.53,1223.52 39.97,2836.45 34.36,3087.9 -204.43,-19.95 -185.5,0.81 -185.15,-59.15 5.62,-837.66 -3.15,-1988.51 -16.48,-2679.42 -9.46,-467.88 308.23,-9580.27 12.98,-10999.22zm43.13 3003.32c-14.73,-607.13 -86.96,-1377.98 -102.39,-2952.16 91.86,470.56 159.2,4920.1 81,6756.81 -4.21,-189.7 -15.08,-378.71 -23.85,-568.24 -29.1,-645.14 81.35,-1785.98 45.24,-3236.41zm-1874.62 -3082.74c-40.67,-7.61 -1.05,93.76 -10.17,-639.29 -6.67,-550.39 8.77,-394.25 24.19,-756.55 12.97,-311.56 -26.3,-1365.71 -27.35,-1366.9 24.19,1.89 48.4,3.22 72.59,4.04 5.61,6.41 151.13,-2.88 212.15,-5.27 249.31,-9.67 179.19,82.27 1371.07,-22.4 3.51,-0.32 2025.05,36.61 2027.51,40.15 12.97,18.87 -12.28,478.76 -7.02,678.95 2.46,90.19 17.53,179.23 18.59,269.59 7.02,629.08 68.03,657.31 64.17,816.05 -4.91,186.41 -23.14,372.44 -27.7,559.02 -11.57,457.33 89.42,396.14 -651.52,408.91 -1628.11,28.12 -3004.1,25.46 -3066.51,13.71zm908.91 4806.19c36.82,-2.48 16.48,-36.01 58.21,-13.82 74.69,49.83 43.13,43.45 63.12,92.86 15.43,37.76 9.11,68.17 -5.96,105.65 -37.52,92.01 -128.34,64.31 -206.18,43.48 -271.41,-71.74 -14.73,-299.21 54.35,-258.75 15.08,8.73 8.42,32.43 36.47,30.58zm-72.23 -1653.6c0,111.65 1.4,223.37 -1.05,334.99 -4.56,-116.11 -8.42,-221.34 1.05,-334.99zm27 1418.45c-2.8,111.27 14.73,132.06 -13.68,137.53 0.71,-2.36 12.62,-120.94 13.68,-137.53zm494.78 -7371.33c-459.02,34.43 -448.85,35.83 -813.18,14.26 51.19,-2.24 -23.85,9.36 813.18,-14.26zm1857.43 -21.46c-100.63,1.79 -201.62,0.87 -302.26,-2.22 79.95,-0.14 173.57,-3.01 302.26,2.22zm448.5 3.26c-53.31,-3.97 -106.95,-1.09 -160.25,-1.83 105.19,-9.89 154.64,-47.9 160.25,1.83zm46.28 69.14c9.82,-0.35 19.99,-0.77 29.81,-1.22 0,3.97 29.45,1093.56 16.48,1523.4 -91.53,-685.01 -32.27,-1277.8 -46.29,-1522.18zm-11.92 2731.39c6.66,-6.91 12.62,-14.48 17.18,-22.83 0.36,19.92 6.31,20.68 -17.18,22.83zm-414.49 83.91c0.71,-0.07 4.21,-0.11 0,0l0 0zm464.98 13853.89c-6.67,-4 -0.36,-0.6 0,0l0 0zm-3546.21 92.01c5.95,-0.32 -0.71,5.47 0,0l0 0zm-1635.72 221.69c-18.44,75.42 -67.43,70.76 -671.61,91.84 -172.14,6.03 -178.1,-1821.92 -303.43,-1836.65 555.51,-14.58 807.99,20.06 1071.78,11.05 -1.36,88.12 13.01,176.66 8.67,264.46 -0.14,3.69 -83.98,1381.49 -105.41,1469.3zm-774.53 83.53c-1.65,-19.78 -3.47,-39.41 -5.69,-59.12 4.98,21.81 13.86,41.98 21.29,62.91 -5.23,-1.19 -10.46,-2.46 -15.61,-3.79zm-74.66 -538.34c19.07,121.62 40.81,240.24 51.62,363.01 -10.87,-72.06 -43.73,-290.48 -51.62,-363.01zm-139.39 -1248.31c90.75,317.06 84.62,621.54 105.44,952.98 -35.31,-317.76 -72.69,-634.97 -105.44,-952.98zm-15558.48 1397.38c-1041.39,15.61 -1743.9,-53.51 -2352.39,-17.92 -1606.72,93.87 -2385.6,-26.26 -3480.5,0.81 -245.81,6.1 -491.94,7.34 -737.79,9.54 12.98,-90.86 166.32,-1365.4 162.99,-1431.81 175.12,4.27 19757.27,55.02 21894.64,2.46 -2.18,43.93 131.63,1200.65 175.39,1519.99 -3.57,-0.46 -8507.81,-190.37 -15662.34,-83.07zm-6644.8 29.77c121.43,-1322.3 156.56,-1471.44 170.06,-1471.05 -72.69,619.93 -70.51,758.41 -170.06,1471.05zm-231.97 357.99c-73.08,8.17 -438.21,-20.96 -542.22,-54.67 -31.1,-10.06 -43.52,-10.31 -50.95,-38.33 -58.97,-223.01 22.94,-1089.77 -153.41,-1727.76 299.64,17.33 502.39,-23.5 1097.36,-9.47 -13.01,79 -110.53,829.31 -125.92,981.92 -55.69,556.75 9.53,822.05 -224.85,848.31zm104.33 8.03c46.07,-25.66 76.51,-58.35 91.06,-110.95 -16.51,101.1 12.03,113.89 -91.06,110.95zm-853.26 -1683.2c12.59,55.89 20.06,112.92 27.84,169.65 -2.94,-18.1 -21.49,-131.22 -27.84,-169.65zm-142.54 -225.62c-10.87,-0.7 -21.04,-1.43 -29.63,-2.24 10.17,0.81 19.95,1.5 29.63,2.24zm1266.37 -19.84c-8.74,3.61 -7.92,16.16 -12.87,19.39 -2.48,1.61 -529.92,10.48 -918.48,8.2 296.91,-16.34 425.24,-101.17 2771.92,9.5 -153.27,2.39 -305.45,-8.24 -458.55,-13.57 -396.25,-13.68 -171.65,30.37 -1354.25,0.14 2.11,-15.29 -11.78,-30.3 -27.77,-23.67zm5811.46 48.84c-365.17,5.37 -729.26,21.49 -1093.98,-2.73 346.49,-12.62 620.42,-18.45 1093.98,2.73zm16260.19 44.99c-4.66,0.67 -9.46,4.91 -14.06,14.97 0.31,-5.08 -0.25,-9.99 -1.72,-14.72 5.26,-0.14 10.52,-0.11 15.77,-0.25zm-23377.6 -9548.78c17.15,-20.41 58.94,-7.75 84.3,-6.95 52.28,1.83 26.89,36.9 137.81,9.61 30.44,-7.46 626.31,-43.7 660.68,-8.98 18.94,19.1 5.54,6469.93 -21.15,7829.3 -0.7,36.79 5.93,83.42 -2.1,119.08 -0.5,2.29 -12.8,5.09 -13.68,11.43 -2.91,20.24 9.61,22.83 16.62,109.83 3.16,39.24 21.07,4.04 14.23,141.29 -20.75,415.71 -36.61,409.25 339.16,404.17 5357.78,-72.52 5473.96,21.85 6971.55,-0.57 7888.97,-118.07 8942.85,260.58 12680.2,62.6 1476,-78.17 1818.87,-31.11 2353.28,-53.06 150.81,-6.2 166.38,-23.81 460.24,-35.9 32.85,-1.34 120.59,15.39 130.55,-28.62 3.82,-16.8 -9.79,-22.83 -13.37,-35.07 -39.09,-133.42 41.66,-5107.41 11.36,-6311.86 -17.18,-682.73 -16.76,-1689.61 -11.81,-1905.2 8.2,-359.5 16.69,-313.42 32.39,-316.3 6.88,-1.29 829.77,28.41 840.78,29.74 123.15,14.87 -29.81,-162.78 58.24,3045.37 59.86,2180.46 -128.24,2623.38 -133.74,3722.41 -1.68,334.46 64.98,435.7 118.45,1233.55 40.92,610.96 -25.73,1010.08 -31.52,1368.24 -2.91,181.12 -3008.8,50.35 -4750.27,100.46 -2304.98,66.34 -4194.43,-49.48 -5043.06,-5.69 -2449.87,126.49 -13465.85,-90.92 -13469.36,-90.89 -735.71,2.59 -1127.96,85.28 -1456.14,36.68 33.2,-69.36 35.52,-9421.18 36.36,-9424.68zm-43.49 8996.57c-0.03,-1.12 -0.14,-8.39 0,0l0 0zm6.46 -5858.07c4.94,109.76 5.95,3350.25 -8,3538.14 -13.82,-348.97 -29.03,-2357.37 8,-3538.14zm942.6 4505.5c-0.18,142.58 8.66,285.09 7.29,427.56 -17.08,-118.76 -15.25,-79.21 -7.29,-427.56zm61.96 -6534.56c29.49,663.34 33.25,1970.53 -19.07,2834.8 -7.3,-741.36 19.39,-2512.09 19.07,-2834.8zm11.12 -1313.03c8.38,-213.94 43.96,-429.66 26.36,-643.64 -13.67,-165.76 -35.24,-308.16 13.54,-661.69 41.52,-302.41 102.11,-268.78 204.96,-309.77 131.54,-52.42 303.11,-21.82 697.56,-29.77 426.82,-8.6 475.91,-93.11 1250.31,-68.35 279.61,8.91 560.13,8.06 839.58,-5.3 371.73,-17.81 3718.49,79.92 5170.25,13.57 700.44,-31.84 1915.89,44.47 2250.17,36.51 173.23,-4.11 114.6,-41.31 437.42,-21.25 91.49,5.69 252.82,-0.03 311.28,11.71 73.81,14.87 50.01,23.04 62.27,43.49 12.41,20.66 16.98,-17.53 30.75,52.42 16.34,83.11 -2.59,193.84 -0.35,332.28 5.96,369.6 26.44,266.85 74.97,450.25 42.6,160.95 14.62,332.31 25.29,496.42 -350.06,-45.02 -701.18,-79.6 -1051.83,-119.15 -135.85,-15.33 -201.67,-54.24 -512.67,-93.59 -683.22,-86.4 -523.04,-111.78 -567.29,1.48 -92.11,-98.82 42.64,539.7 13.15,602.25 -10.42,22.13 -19.18,14.31 -38.99,17.92 -48.22,8.8 -108.67,39.55 -269.41,71.96 -170,34.29 -717.72,36.54 -1011.05,19.32 -227.48,-13.36 -1078.45,-166.18 -1081.96,-166.74 -131.15,-21.04 -262.6,-19.85 -393.89,-34.89 39.02,-55.75 -203.67,-73.81 -232.84,-69.75 -62.17,8.7 -59.75,134.38 -60.73,291.47 -4.2,672.53 64.35,568.41 -101.06,594.09 -3.51,0.49 -944.6,177.08 -1498.16,196.64 -3.51,0.11 -988.54,-264.21 -1598.12,-262.6 -944.57,2.48 -973.43,-51.87 -968.94,136.45 4.31,182.96 -1.08,201.73 0.04,294.62 4.52,381.41 81.91,947.06 60.69,1009.48 -2.28,6.66 -18.16,21.42 -21.53,29.24 0.36,-0.74 -13.11,5.99 -14.9,7.89 -342.95,360.12 -411.39,1454.28 -392.92,1464.38 -313.9,57.29 -494.18,101.93 -987.7,293.4 -463.11,179.67 -419.28,303.04 -563.64,513.89 -46.75,68.27 -86.2,131.25 -112.03,210.74 128.9,-3431.02 -15.51,-4018.61 11.43,-4705.37zm17.52 -1412.88c-3.86,19.5 -7.78,38.99 -10.93,58.64 1.29,-20.52 4.52,-39.13 10.93,-58.64zm1242.7 -324.67c-81.91,10.66 -163.44,18.69 -245.98,21.84 96.79,-9.6 175.33,-17.74 245.98,-21.84zm3285.46 -28.69c-384.47,-3.76 -768.74,-32.05 -1153.35,-27.56 -392.04,4.52 -783.31,27.18 -1175.45,13.75 817.56,-25.7 1511.45,-36.86 2328.8,13.82zm6642.25 17.46c-5.37,-0.87 -51.34,-3.72 -420.41,-14.48 -257.41,-7.47 -48.29,73.54 -1340.85,0.91 214.22,-11.82 1582.67,-92.08 1761.26,13.57zm0.67 0.32c0.03,0.03 0.14,0.07 0.21,0.1 -0.28,0 -0.28,-0.03 -0.21,-0.1zm210.68 909.12c-130.66,-376.85 -20.56,-577.01 -68,-765 116.07,140.68 75.22,542.29 68,765zm-744.2 491.44c247.66,26.16 495.13,54.43 742.14,86.27 0.9,9.39 1.82,18.76 2.76,28.12 -249.04,-24.86 -499.62,-64.77 -744.9,-114.39zm-1324.79 -153.06c7.47,-18.94 -3.58,-23 99.52,-5.69 -24.86,0.25 -74.97,3.83 -99.52,5.69zm-808.9 3778.07c-14.26,39.16 -13.46,47.65 -28.96,71.74 8.99,-24.15 18.98,-47.97 28.96,-71.74zm555.41 -1802.57c-41.38,339.79 0.6,406.55 -94.86,806.38 -1.15,4.91 -59.15,236.73 -70.31,261.98 50.15,-390.49 -27.45,-449.23 165.16,-1068.35zm-1702.87 -1351.4c10.73,1.9 0.94,0.18 0,0l0 0zm-929.24 -11.78c-11.64,-13.43 -23.5,-27.04 -36.44,-39.31 4.28,-1.61 8.56,-3.22 12.8,-4.8 8.03,14.58 15.95,29.28 23.64,44.11zm-76.69 -138.47c19.95,2.17 40.22,6.45 59.11,13.32 -29.59,8.7 -25.07,8.95 -59.11,-13.32zm7576.16 3184.81c-106.43,-327.72 -99.31,-319.73 -19.5,-596.47 -53.65,342.42 -13.04,353.53 19.5,596.47zm-1001.59 -3203.65c104.21,10.87 109.97,27.84 130.51,25.15 18.16,-2.43 28.19,-16.31 18.24,-33.07 -9.26,-15.64 -51.69,-17.99 -68.1,-21.39 -56.29,-11.64 -114.07,-15.04 -171.24,-19.92 51.41,-67.25 -106.91,-55.71 -228.1,-62.52 1494.97,-157.97 892.57,-104.14 1317.15,-170.74 61.54,-9.64 132.09,-11 190.86,-31.41 1.72,45.34 7.37,87.87 14.73,132.55 10.73,65.05 -12.03,24.01 1.12,355.95 -0.71,-16.69 1.29,9.64 1.01,10.76 -4.14,17.53 -12.72,16.52 -18.06,33.42 -5.92,18.8 10.42,31.14 12.41,47.1 1.51,12.1 -30.37,379.7 -33.06,526.44 -1.72,92.26 45.09,562.71 -69.58,1147.63 -20.68,105.59 -40.74,210.44 -55.57,317.07 -17.88,128.83 -166.18,466.79 -162.46,638.09 2.73,122.23 66.38,242.13 94.08,354.9 22.16,82.02 43.2,166.84 72.97,246.06 -702.96,58.31 -1459.34,399.92 -1639.47,364.05 -435.27,-86.62 -1748.41,64.24 -2006.3,-0.46 -1279.09,-320.85 -2977.58,-512.84 -4300.37,-547.34 169.52,-462.76 254.47,-266.75 314.55,-1027.71 21.46,-271.62 -5.79,-389.82 -4.74,-467.36 1.69,-129.12 85.31,-497.51 8.6,-1087.68 -25.81,-198.37 -68.21,-417.67 -20.1,-615.93 144.62,118.41 175.97,299.49 263.56,455.88 8.06,14.45 18.06,28.37 24.26,43.77 3.12,7.78 1.19,19.21 7.02,25.21 25.98,26.76 40.01,-13.99 32.82,-36.82 -14.91,-47.44 -28.13,-26.93 -108.88,-227.89 19.42,4.56 44.14,-5.4 50.43,-25.84 9.11,-29.52 -21.21,-36.92 -33.49,-54.38 -24.93,-35.49 -19.42,-69.19 -79.74,-182.17 397.4,20.79 1237.47,192.82 1634.45,223.97 579.47,45.45 1102.92,-86.96 1138.24,-129.57 -114.39,1183.93 -262.54,1267.66 -352.34,1783.8 -41.49,238.45 -18.2,624.35 -81.98,739.68 -87.53,158.25 -177.05,298.66 -256.23,449.05 -38.92,-44.88 -141.35,228.53 -145.98,272.74 -2.98,28.62 14.09,65.75 44,35.32 5.23,30.85 41.98,36.79 60.63,15.01 21.18,-24.79 24.97,-84.12 33.91,-114.99 71.36,-246.16 367.53,-624.1 433.13,-881.2 88.86,-347.96 85.63,-312.12 119.97,-782.6 36.5,-499.47 134.16,-850.13 164.14,-1070.84 150.97,-1111.9 -104.99,-1056.67 94.58,-1069.76 279.75,-18.34 735.92,66.91 1038.06,134.8 1029.25,232.59 1328.47,159.02 2520.36,283.19zm-1134.07 -157.16c-113.3,-6.31 -226.49,-13.79 -339.48,-23.92 -0.81,-8.49 -1.61,-16.94 -2.42,-25.43 114.24,15.05 228.21,30.64 341.89,49.34zm2272.69 -215.03c-216.32,33.53 -430.47,84.37 -648.12,107.97 568.49,-152.89 541.32,-134.79 648.12,-107.97zm-2287.49 -1263.94c3.54,-0.04 319.03,-3.58 361.84,4 138.65,23.67 8067.05,-110.42 10252.03,39.27 121.51,8.31 234.8,52.42 289.47,169.75 46.99,100.74 -100.75,460.84 -42.82,740.97 64.31,311.07 103.87,817.85 79.67,941.35 -22.3,113.89 9.43,250.19 14.24,600.71 27.07,1977.36 -120.59,1310.34 -68,3331.68 3.58,136.13 -0.63,272.19 -2.66,408.31 -162.88,-236.42 -182.24,-405.12 -508.77,-534.76 -248.45,-98.6 -501.06,-191.28 -759.6,-259.91 85.24,-40.95 438.15,-168.52 449.86,-328.22 7.78,-105.97 -41.1,-105.86 -79.32,-171.43 -34.4,-59.05 -58.8,-123.78 -97.66,-180.31 -86.05,-125.15 -125.07,-41.84 -310.78,-572.42 -253.71,-705.76 -360.16,-193.21 -96.16,-775.17 39.06,-86.12 94.58,-163.75 136.06,-248.9 201.17,-412.76 5.85,-343.57 -85.8,-343.96 -349.08,-1.61 -3515.95,-118.83 -4385.17,-58.74 8.39,-262.08 -0.6,-602.47 -0.53,-603.73 5.79,-97.72 21.01,-194.05 20.69,-292.16 -0.18,-49.12 -3.12,-98.26 -2.07,-147.38 0.9,-39.27 13.43,-97.55 -12.45,-131.05 -53.99,-69.92 -505.23,80.9 -1150.99,146.13 -318.64,32.19 -330.85,64.38 -579.79,250.26 -18.58,-44.49 -100.46,-14.16 -284.2,-30.78 -110.46,-9.99 -217.17,-40.74 -327.91,-48.64 -103.89,-7.44 -213.44,-14.76 -315.23,-37.14 -40.05,-8.77 -73.64,-6.87 -70.69,-46.92 32.75,-445.41 -3.09,-233.22 -13.96,-505.06 -1.93,-48.53 -21.5,-67.88 -66.63,-80.64 -43.73,-12.39 -94.15,-27.7 -139.67,-29.88 -139.91,-6.59 -728.18,183.21 -877.78,197.87 -819.49,80.2 -750.13,34.72 -1018.49,71.96 -56.46,7.82 -72.37,-2.04 -320.67,-42.28 -379.56,-61.58 -318.64,-12.41 -320.54,-110.99 -10.59,-554.11 63.71,-987.8 -32.99,-1214.79 -50.57,-118.62 230.52,-105.51 367.45,-107.01zm9878.86 -70.52c3.47,0.07 727.65,-6.91 865.64,64.56 -195.14,-53.62 -328.74,-3.83 -832.32,-25.32 -771.45,-32.89 99.94,-77.43 -1662.33,-62.91 -278.91,2.28 -557.41,-19.64 -836.49,-14.16 -306.13,5.99 -612.11,20.06 -918.2,25.21 1972.38,-140.4 3099.19,6.63 3383.71,12.62zm1004.08 145.49c-15.44,-14.16 -31.74,-27.29 -48.88,-39.31 20.52,8.7 32.02,14.38 48.88,39.31zm36.29 949.34c-68.17,-263.28 -14.94,-380.47 19.99,-632.14 0.28,13.33 -2.77,436.54 -19.99,632.14zm28.99 9264.89c2.95,36.47 9.15,72.62 10.1,109.19 -7.67,0.21 -15.39,0.43 -23.03,0.67 10.27,-21.88 6.48,-60.17 12.93,-109.86zm-22592.83 -1819.5c-73.71,19.75 -122.49,58.67 -153.17,129.29 -4.41,10.32 -0.31,16.48 -5.05,-346.69 48.47,78.72 80.93,161.69 158.22,217.41zm129.57 49.73c-76.06,22.02 -155.8,48.32 -217.38,100.11 37.24,-82.55 127.25,-96.82 217.38,-100.11zm-169.79 -200.09c148.33,85.46 329.13,113.58 497.1,126.35 -80.47,9.22 -16.55,11.39 -167.76,6.84 -127.5,-3.83 -238.31,26.76 -329.34,-133.19zm11168.45 -2736.25c-362.97,-3.65 -608.6,18.09 -677.05,-6.7 345.04,18.87 104.92,4.45 809.74,-21.46 -1.36,43.93 27.6,29.81 -132.69,28.16zm68.38 805.01c35.07,184.49 -4.31,380.5 -11.22,566.8 -33.35,-257.94 -10.9,-395.33 11.22,-566.8zm20.69 -236.2c-11.36,-10.38 -29.49,-4.59 -32.97,10.31 -66.2,-105.03 -166.66,-255.28 -265.52,-331.3 73.78,36.29 296.7,165.47 298.49,320.99zm59.82 1869.5c93.31,254.43 59.15,318.95 579.64,474.51 -354.13,-0.07 -370.72,-10.17 -508.74,-279.41 15.12,31.39 -82.82,-145.41 -70.9,-195.1zm-14 -38.44c9.06,13.36 9.54,17.81 1.51,13.33 -0.49,-4.45 -0.98,-8.88 -1.51,-13.33zm192.45 511.26c-31.1,0.14 -62.13,1.02 -93.25,2.7 -27.84,-15.68 -87.06,0.49 -116.97,1.4 -3.9,-108.7 4.66,-218.11 3.93,-326.91 49.23,110.28 111.51,243.85 206.29,322.81zm-201.24 -2391.03c-29.88,-179.71 -197.8,-269.98 -668.78,-474.37 214.46,0.56 331.59,-6.8 672.25,-3.33 -11.32,158.6 0.94,318.74 -3.47,477.7zm-76.59 2395.14c-91.52,-4.27 -96.18,-6.2 -193.98,-6.63 15.46,-12.86 150.67,-160.03 197.9,-238.97 -1.12,81.67 -7.67,163.89 -3.93,245.6zm-567.36 -5.05c97.73,-11.92 196.54,-10.24 293.19,-30.96 -70.32,35.46 -215.8,30.64 -293.19,30.96zm-9258.23 -38.92c657.86,-20.96 1088.93,37.7 1455.83,30.23 1331.8,-27.11 1623.93,-6.98 2262.84,19.32 -1245.51,36.05 -2343.21,2.11 -2909.56,-24.65 -270.29,-12.76 -538.48,-23.64 -809.11,-24.9zm10777.67 129.05c-924.93,-35 -2277.8,86.75 -2824.59,82.47 -936.68,-7.33 -2736.93,-64.45 -3674.9,-33.14 -272.08,9.09 -543.49,28.16 -815.77,34.05 -382.4,0 -762.44,-50.88 -1145.04,-58.39 -693.22,-13.5 -1271.43,-10.56 -1874.34,-80.83 1386.47,65.85 9964.84,-16.65 10334.64,55.83zm1180.39 -31.28c-290.76,14.3 -584.16,41.38 -875.35,39.73 292.84,-11.05 327.76,-55.83 875.35,-39.73zm773.24 -76.8c428.33,-29.6 1765.74,6.1 1821.11,8.38 -607.31,-4.31 -1213.94,-12.76 -1821.11,-8.38zm1360.91 80.3c-435.1,0.03 -870.26,-8.25 -1305.32,-12.62 1336.6,-5.73 2680.36,6.69 1305.32,12.62zm3158.38 41.34c47.69,-0.94 95.38,-2.14 143.11,-3.65 130.37,-1.19 -26.19,2.66 -143.11,3.65zm3962.76 -1542.41c-1.23,-4.04 -2.49,-8.06 -3.72,-12.14 -0.11,-15.22 -0.32,-30.51 -0.43,-45.72 1.55,19.25 2.88,38.54 4.14,57.86zm1.5 -388.21c0,-16.02 -3.15,93.03 -7.99,149.63 -0.87,-96.68 2.35,-193.42 4.7,-290.07 8.84,44.43 6.24,81.98 3.29,140.44zm6.28 696.86c-1.83,-54.8 -4.49,-109.54 -7.12,-164.35 2.83,8.34 5.75,16.62 8.73,24.89 3.16,46.82 0.94,92.72 -1.61,139.46zm-133.81 1109c63.61,-45.9 101.45,-111.75 137.35,-180.17 6.24,104.5 18.41,209.8 18.09,314.54 -39.55,-88.53 -80.36,-114.24 -155.44,-134.37zm-330.64 -15.92c163.48,-40.43 306.16,-76.27 409.23,-198.72 -116.57,216.68 -151.35,191.14 -409.23,198.72zm419.74 168.63c-135.92,-51.93 -676.81,-89.56 -705.71,-87.98 140.94,-7.89 653.95,-30.51 705.71,87.98zm-8683.99 -3451.92c16.23,5.3 13.64,12.07 22.89,30.89 -280.48,46.15 -562.87,78.31 -842.1,132.02 70.55,-21.49 140.01,-46.32 210.85,-66.9 248.34,-66.53 601.14,-98.37 608.36,-96.02zm322.5 -16.09c-32.72,4.28 -156.37,22.76 -234.98,36.4 0.67,-9.89 -2.94,-17.81 -7.01,-26.58 80.72,-6.06 161.06,-9.05 241.99,-9.82zm2597.57 -133.81c-20.62,19.46 -18.41,-4.77 -506.81,13.26 -597.17,22.09 530.51,-35.39 506.81,-13.26zm483.63 15.12c-142.61,-2.29 -285.09,-6.98 -427.7,-9.29 28.96,-23.5 421.77,8.73 427.7,9.29zm1950.36 77.81c-57.86,-4.91 -115.72,-9.82 -173.5,-15.19 58.53,0.25 115.68,6.1 173.5,15.19zm2150.69 238.87c-99.97,43.84 -146.37,72.59 -157.76,69.99 52.21,-23.99 103.06,-51.83 157.76,-69.99zm1169.66 1506.12c-18.09,-93.07 -196.65,-597.77 -263.63,-701.43 -73.57,-113.89 -230.21,-185.28 -389.06,-278.21 -461.22,-269.83 -349.25,-274.53 -1247.46,-490.67 624.06,96.12 706.5,134.37 1067.83,255.66 364.96,126.62 527.24,185.36 660.25,423.24 247.15,441.9 163.19,113.16 172.07,791.41zm-1453.69 -2869.55c65.34,119.08 104.25,252.34 155.66,377.77 -147.98,-277.93 -76.27,-77.67 -155.66,-377.77zm-93.24 -141.91c-54.6,32.61 -73.43,84.26 -110.46,145.63 18.31,-67.5 43.52,-131.5 73.74,-194.58 12.32,16.27 24.44,32.61 36.72,48.95zm253.07 -961.15c17.81,-0.53 35.62,-1.3 53.48,-1.65 -5.72,208.43 -212.08,436.5 -431.34,943.48 -48.88,112.99 -63.37,229.54 -95.31,347.05 -20.27,74.58 -75.18,112.42 -144.61,295.26 -18.06,-75.46 -8.1,-148.75 8.13,-223.69 130.8,-603.76 317.91,-707.49 530.75,-1081.71 40.68,-71.5 136.13,-194.72 78.9,-278.74zm-35.21 19.81c3.33,3.4 0.49,0.81 0,0l0 0zm0.18 0.32c-4.98,-4.98 -0.64,-1.09 0,0l0 0zm-7.16 -5.86c3.37,2.08 -0.21,-0.03 0,0l0 0zm-4394.04 -72.3c810.02,-56.84 911.01,4.77 1622.46,10.21 2229.31,17.04 2135.3,40.15 2286.29,44.81 -823.18,3.05 -1932.44,36.58 -2239.56,25.53 -145.34,-5.22 -1284.25,-76.93 -1669.2,-80.54zm60.91 41.77c382.08,12.03 2262.1,143.94 4105.3,51.58 42.57,-1.96 217.45,-46.78 235.81,-13.71 92.47,160.46 -494.6,596.08 -626.55,1386.22 -9.64,57.79 -16.62,191.28 17.81,228.52 49.23,53.34 94.93,-116.83 110.88,-148.11 4.63,19.53 25.53,29.35 43.9,23.53 23.28,-7.37 31.73,-42.35 39.34,-62.03 70.34,-181.5 3.65,-147.53 156.67,-381.39 6.73,-10.31 36.96,-65.36 50.11,-65.88 33.07,-1.3 69.89,228.24 80.72,265.38 24.72,84.65 456.77,787.86 459.5,791.51 48.64,63.68 192.55,132.9 83.32,213.66 -104.6,77.28 -138.58,65.19 -450.49,204.96 -106.64,47.82 -20.13,32.64 -505.72,-39.49 -438.85,-65.22 -310.71,-78.79 -1068.11,-177.08 -118.48,-15.43 -235.72,-50.52 -353.81,-70.48 -219.55,-37.14 -447.31,-14.69 -669.27,-21.21 -763.5,-22.37 -1280.82,-98.44 -1620.05,-103.51 253,-185.89 204.93,-172.81 81.71,-755.74 -21.04,-99.66 -31.56,-201.55 -55.09,-300.68 -56.42,-237.68 -213.13,-193.57 -181.71,-953.66 0.49,-11.11 -19.85,-75.08 65.71,-72.37zm-128.97 -636.17c-9.26,-151.59 6.66,-257.45 21.95,-370.68 -0.42,124.02 -24.51,246.79 -21.95,370.68zm-2.14 633.07c5.12,18.63 -23.36,280.04 6.94,530.34 -136.44,-293.11 -28.69,-224.7 1.75,-883.55 -0.24,108.95 -3.26,205.98 -7.22,314.97 -5.26,1.4 -9.29,4.45 -12.07,9.18 -3.82,15.43 7.85,18.97 10.6,29.06zm-1382.68 -993.31c58.7,-31.49 119.05,-50.53 185.07,-59.44 -61.71,19.67 -123.99,37.84 -185.07,59.44zm-381.21 153.06c16.77,0.53 33.53,0.9 50.33,1.5 -24.19,18.34 -23.25,16.59 -49.27,38.65 0.67,-13.43 1.4,-26.86 -1.05,-40.15zm-923.25 502.63c2.7,-102.18 20.72,-203.45 24.44,-305.63 3.76,-102.82 -2.39,-206.54 4.95,-308.89 8.77,2.62 17.53,5.12 26.37,7.53 -17.92,10.66 -8.39,41.52 13.04,37.76 174.42,-30.47 146.46,-2.76 625.19,53.83 130.37,15.39 190.79,-8.35 189.91,43.89 -1.05,61.12 -11.92,38.72 -19.85,62 -7.78,22.83 4.24,22.65 6.28,40.85 1.75,16.03 -10.28,36.65 -7.26,53.16 2.59,14.2 12.06,28.41 28.82,21.75 25.43,-10.17 -2.9,-193.11 532.37,-358.21 476.62,-146.99 229.65,-62.94 615.44,-129.18 369.78,-63.47 617.8,-117.08 636.87,-111.34 24.82,7.44 19.77,32.47 -8.49,240.38 -48.84,359.89 -2.56,367.71 -12.87,634.03 -34.08,879.32 -227.09,283.09 220.32,1467.68 6.49,17.08 58.32,283.09 62,301.22 37.73,186.1 68.76,154.11 56.64,410.55 -8.28,175.58 -34.29,129.99 -135.85,213.87 -13.04,10.8 -21.88,33.91 -33.14,42.43 -17.74,13.39 -848.66,-26.16 -2383.28,161.68 -124.28,15.22 -223.02,-2.59 -455.62,9.22 -109.9,5.58 -108.49,14.59 -118.21,-25.32 -204.82,-840.67 90.25,-1148.76 139.32,-2233.94 4.98,-110.1 -10.35,-219.58 -7.41,-329.34zm-1714.82 3029.16c-289.4,137.35 -608.46,209.1 -846.63,418.4 185.92,-222.28 561.37,-368.96 846.63,-418.4zm-892.54 64.24c185.43,-5.55 370.86,-31.07 556.08,-43.03 -265.1,96.61 -499.59,236.03 -656.4,474.51 13.96,-489.62 -48.71,-427.07 100.32,-431.48zm238.98 -93.73c118.73,-6.87 233.29,-6.06 351.5,7.64 -266.36,16.16 -468.87,48.15 -687.29,46.75 1.93,-45.38 -39.8,-32.68 335.79,-54.39zm-387.13 925.39c0.84,-5.81 7.41,-10.31 8.28,-16.09 10.31,-69.36 -2.95,-35.39 24.93,-167.76 18.3,-87.17 -25.5,-50.91 62.66,-140.86 233.96,-238.94 313.98,-265.62 657.17,-403.82 432.74,-174.24 369.56,-182.59 482.47,-216.39 92.54,-27.7 2628.19,-637.68 6267.99,-365.98 1182.34,88.08 1166.88,122.52 1776.19,271.83 728.14,178.45 756.66,158.81 1488.54,613.33 272.99,169.55 274.78,408.66 397.37,706.48 96.47,234.34 89.28,628.8 100.01,925.91 20.31,564.06 66.14,427.94 -58.7,573.08 -94.19,109.55 -226,139.87 -326.15,166 -590.65,154.09 -590.4,5.55 -1766.17,73.47 -2680.39,154.95 -5116.74,-160.42 -6839.53,-3.19 -79.42,7.26 -1030.76,15.99 -1034.41,15.99 -601.1,-0.35 -429.94,35.56 -628.83,-26.02 -586.2,-181.43 -452.66,-192.41 -619.82,-580.86 -28.83,-66.91 -1.72,-72.84 -7.57,-441.38 -14.34,-901.85 16.94,-622.91 18.37,-923.53 0.07,-18.76 -5.29,-42.15 -2.8,-60.21zm-9690.21 -1420.83c-8.31,59.12 -15.36,118.45 -21.7,177.82 -3.58,33.64 -30.75,128.34 15.15,142.58 -17.05,2.91 -34.08,5.89 -51.13,8.95 35.87,-43.66 42.78,-897.16 304.9,-1307.33 -178.34,349.79 -196.33,617.13 -247.22,977.99zm5706.87 61.4c189.11,15.58 379.06,36.47 566.83,63.89 -431.06,-34.86 -1208.89,-137.21 -3174.86,-82.65 460.9,-52.6 1095.11,-71.04 1118.82,-63.02 9.81,3.3 15.04,17.19 28.47,17.67 13.89,0.5 14.13,-14.06 23.25,-17.32 19.78,-7.19 1104.64,53.92 1437.49,81.42zm-1160.41 -1095.38c-45.82,375.48 -39.8,410.19 -124.62,560.34 43.2,-186.37 91.45,-371.76 124.62,-560.34zm58.6 -851.75c-3.29,-43.49 -128.65,-986.44 -74.65,-1453.03 56.49,36.93 41.55,16.1 32.54,63.37 -64.91,339.97 93.51,659.21 42.11,1389.66zm-4257.38 -664.12c2.18,-21.85 220.08,-23.56 228.88,-23.6 -76.34,7.09 -152.78,14.41 -228.88,23.6zm-18.51 2015.13c31.42,-18.3 42.08,-123.29 46.99,-153.55 13.08,-80.51 6.94,-39.17 26.9,-74.83 12.48,-22.37 5.26,-72.45 6.27,-97.03 28.05,-666.28 -25.39,-618.2 -46.67,-1058.99 -9.09,-187.78 -5.37,-376.12 -9.75,-564.06 406.76,3.22 661.62,-208.4 2363.34,169.05 113.36,25.11 208.32,74.02 314.82,123.89 188.48,88.22 192.86,74.83 312.65,175.47 188.37,158.28 250.37,273.02 299.49,247.28 43.31,-22.68 -15.07,-27.91 -96.15,-111.61 -50.14,-51.8 -100.32,-101.87 -155.27,-148.68 36.33,12.79 165.34,61.72 189.36,9.85 17.64,-38.05 -21.81,-46.71 -47.33,-48.22 -132.52,-7.81 -350.66,-124.31 -551.24,-222.32 97.38,-3.15 902.87,-94.11 1230.49,-83.21 3.51,0.14 232.21,6.63 235.76,4.52 47.86,-28.55 -26.97,-40.29 -41.95,-40.92 -3.57,-0.18 -309.03,-8.42 -364.54,-6.34 142.47,-22.58 283.19,-55.47 425.8,-77.57 28.37,296.84 129.33,829.13 63.41,1291.13 -25.43,178.13 -128.55,724.21 -235.3,960.76 -74.05,164.08 -36.61,150.47 -108.95,151.63 -955.92,15.53 -424.33,37.55 -2063.69,124.9 -924.97,49.27 -1725.13,217.69 -2100.59,278.78 33.06,-24.86 53.05,-677.4 182.86,-1032.58 39.41,-107.8 92.54,-208.36 141.77,-311.71 -0.11,3.76 -10.1,335.48 -21.07,381.98 -2.63,11.21 -56.78,146.85 2.59,112.38zm-2051.39 2731.31c5.44,-99.52 13.57,-198.96 18.55,-298.55 10.35,-207.98 -67.36,-447.48 93.55,-673.51 250.41,-351.64 111.59,-368.16 704.9,-590.48 458.98,-171.92 1217.8,-283.54 1465.54,-326.04 2937.36,-504.07 7063.91,-103.13 8144.15,249.63 12.28,-0.1 19.99,5.34 23.14,16.34 3.51,1.55 372.44,82.86 605.41,310.33 68,66.38 257.8,298.97 246.02,392.85 -31.91,254.86 -57.29,369.46 -15.22,685.05 35.94,269.76 -25.64,483.52 -9.61,632.2 8.35,77 74.59,193.7 28.83,402.1 -15.32,69.64 -142.54,341.47 -207.1,372.86 -260.33,126.55 -2807.51,35.42 -3929.79,58.28 -1252.59,25.5 -866.9,44.11 -1805.09,6.17 -1993.74,-80.58 -1389.59,-4.84 -3161.92,-49.2 -906.24,-22.65 -912.69,14.38 -1277.98,2.59 -1074.63,-34.64 -944.35,-197.46 -923.32,-894.7 2.95,-98.56 -5.47,-197.74 -0.07,-295.92zm614.68 3233.18c-31.95,0.07 -63.86,-0.57 -95.73,-2.43 37.9,0.71 46.25,0.95 95.73,2.43zm10001.1 -46.75c-1876.55,37.91 -7131.1,-20.34 -8225.16,-35.76 2059.22,-167.34 2958.48,-69.61 3259.02,-50.74 2060.72,129.43 -364.26,-22.54 4966.14,86.51zm10820.27 47.59c-2315.79,4.66 -1308.48,227.33 -6900.01,21.98 561.33,-17.22 528.44,3.05 923,7.41 1558.53,17.08 4224.24,-71.22 5977.01,-29.38zm384.91 3.15c-233.04,5.96 -385.9,-4.45 -119.43,-1.89 39.83,0.38 79.63,1.22 119.43,1.89zm858.45 -69.29c-279.55,12.31 -2116.01,-14.13 -2120.09,-14.16 -1022.52,-11.68 -1913.19,55.2 -6444.23,43.48 -4557.62,-11.74 -5398.91,-132.69 -7079.38,-88.78 -389.55,10.17 -775.51,-7.71 -1164.11,-34.54 -2494.34,-172.38 -3589.1,148.05 -5898.71,89.81 4.24,-169.41 26.27,-235.79 11.36,-656.61 -8.1,-229.12 -0.7,-396.38 -2.18,-801.18 -0.28,-79.25 -37.87,-236.84 162.5,-331.27 307.53,-145.03 191.01,-50.4 1204.37,-83.39 208.12,-6.81 410.27,24.89 616.39,49.26 824.15,97.45 1768.47,47.94 2469.16,108.7 192.09,16.66 382.04,29.03 575.02,24.76 216.21,-4.84 431.69,-18.73 647.7,-28.48 890.25,-40.12 2629.34,14.69 3774.53,28.87 413.74,5.12 824.92,-37.21 1237.79,-54.35 1754.7,-72.87 1377.77,10.27 2504.33,-45.21 991.35,-48.81 1486.13,-5.85 2514.96,-11.32 3966.13,-21.22 1100.65,153.16 5026.27,-62.38 230.49,-12.62 1463.26,37.9 1844.32,106.53 237.22,42.75 156.22,81.22 159.68,1037.04 -0.49,722.29 -67.18,667.68 -39.69,723.23zm72.09 -3953.54c-80.26,-326.95 -33.88,38.96 -42.39,-566.63 -7.3,-488.89 -6.77,-1411.37 38.19,-1897.41 21.07,812.86 5.05,2418.73 4.2,2464.04zm1014.46 274.04c-18.13,2425.82 -31.85,2105.43 -33.28,2782.96 -49.41,-554.46 -103.83,-534.86 -81.11,-1074.87 11.64,-276 114.17,-1704.51 114.39,-1708.09zm-24.58 4579.98c-18.17,-1.71 -10.1,-8.73 0.03,-140.22 1.44,47.03 1.54,93.21 -0.03,140.22zm0.67 55.62c-4.17,1.18 -5.44,-1.37 -3.9,-7.68 -0.84,-2.25 -1.36,-4.59 -1.58,-7.02 8.17,0.74 5.12,7.34 5.48,14.7zm-245.54 19.56c-10.93,-6.94 -20.27,3.86 -126.13,3.26 359.71,-46.29 320.57,-46.21 329.02,-18.87 -67.54,6.31 -135.14,12.14 -202.89,15.61zm13.43 282.28c-13.43,-247.46 -24.89,-212.71 41.1,-217.24 -4.17,14.23 -19.78,88.48 -41.1,217.24zm3415.81 -7347.64c-6.67,-232.21 -8.42,-257.87 -9.12,-350.41 2.81,116.8 7.37,233.58 9.12,350.41zm15.08 2080.84c-0.36,-14.41 -1.05,92.82 -8.77,-1711.46 25.94,1164.57 38.22,1357.22 8.77,1711.46zm3744.68 6497.39c-1.05,-0.04 -1138.94,48.67 -2017.69,26.82 -32.61,-0.83 -36.47,5.48 -38.58,-27.45 -8.42,-120.63 -39.27,-92.89 -171.12,-92.89 -3.51,0 -1562.54,-22.44 -1566.05,-24.58 -80.65,-49.76 97.84,-7287.85 95.03,-7380.77 -109.05,-3358.57 30.86,-5097.95 -117.82,-6368.49 425,5.02 1213.98,8.53 1665.28,-29.45 77.5,-6.52 44.53,-64.52 45.24,-127.22 5.61,-494.42 -0.71,-163.05 27,-460.45 12.62,-134.89 -8.41,-267.83 0.71,-402.07 36.82,-545.44 0,-1156.36 -3.16,-1797.51 -0.35,-120.45 -78.55,-52.53 -102.74,-75.77 -11.22,-10.98 -1.75,-41.24 -18.94,-55.2 -48.39,-39.17 35.42,23.11 -532.3,7.15 -618.56,-17.36 -974.83,34.4 -1274.99,18.27 -894.52,-48.07 -1728.74,20.66 -1763.11,21.11 -35.77,0.5 -181.29,-31.56 -174.63,30.79 -37.87,-4.21 -16.12,44.53 -23.49,234.97 -25.04,654.09 21.74,421.01 25.6,910.52 3.16,432.23 -23.85,507.4 -23.85,747.92 0.35,243.82 18.59,489.24 6.66,732.81 -8.06,165.19 -55.4,235.05 58.22,236.34 932.74,10.97 817.73,-0.32 853.14,8.98 39.27,10.35 6.67,906.52 24.2,1584.91 27.69,1084.66 -101.35,955.41 -52.25,2231.03 10.52,268.26 34.72,328.22 17.19,620.17 -10.17,166.29 -26.3,188.2 -6.31,202.44 -79.6,20.48 -142.37,65.64 -174.98,142.41 -114.31,268.07 490.58,409.77 463.93,56.66 -1.76,-20.02 -16.13,-38.82 -17.19,-57.78 -1.05,-18.2 12.62,-17.81 3.16,-38.51 -15.78,-33.91 -71.54,-72.65 -103.44,-89.35 -66.98,-34.96 -59.97,23.32 -59.97,-189 0,-202.71 -17.53,-404.76 -24.19,-607.24 -9.47,-281.76 23.5,-3851.45 27.35,-3854.12 9.11,-6.67 773.9,0.77 777.4,1.89 25.95,8.35 16.84,-14.48 19.99,138.02 0,3.62 59.61,2126.43 59.97,2130.29 137.46,1729.91 -55.75,2608.06 24.54,4693.29 47.34,1228.57 -194.61,4113.4 -108,5541.18 20.34,334 -8.77,1130.59 10.86,1207.14 -109.4,-7.96 -1289.72,-61.79 -1434.89,-50.67 -32.97,2.48 -80.65,5.23 -102.4,34.04 -27.69,36.93 1.76,137.22 -13.32,163.97 -8.42,14.45 -189.01,16.62 -205.84,17.08 -508.87,13.29 -778.63,14.98 -1301.96,45.28 0.25,-3.9 74.9,-1317.54 161.44,-1494.58 15.18,-31.1 76.62,-13.05 154.04,-29.32 62.45,-13.14 33.14,-92.29 34.05,-363.7 0.18,-58.67 6.13,-117.04 7.3,-175.64 4.24,-215.45 -21.5,-402.74 -0.74,-530.86 2.35,-14.41 -0.84,5.08 -8.53,-177.62 -23.35,-554.78 18.66,-1547.52 21.64,-2665.1 6.17,-2332.72 -60.04,-4659.2 -26.51,-5522.91 1.75,-45.97 32.19,-175.61 -35.42,-181.74 -53.82,-4.95 -60.07,15.54 -368.75,10.45 -148.33,-2.46 -292.84,-27.98 -441.51,-20.97 -49.02,2.32 -99.31,8.91 -147.88,8.91 32.19,0 -31.31,-403.28 -31.56,-406.83 -24.9,-347.92 -13.22,-249.52 3.37,-492.46 83.49,-1223.66 -125.93,-930.51 -1501.21,-1041.53 -1641.15,-132.44 -1758.2,54.56 -6677.73,54.56 -2425.43,0 -2271.49,48.95 -2429.22,23.46 -159.63,-25.8 -639.4,-19.77 -764.9,37.18 -78.61,35.69 -65.26,21.03 -128.62,-17.12 -154.71,-93.17 -43.59,-105.65 -531.07,-117.57 -91.17,-2.25 -4082.68,85.52 -4173.86,84.96 -1833.7,-11.46 -2750.28,-208.43 -5990.33,29.53 -263.14,19.32 -520.1,-27.01 -631.93,264.43 -59.96,156.26 -8.48,745.81 -7.99,777.16 2.59,167.76 -19.74,180.13 -24.86,801.88 -460.56,-12.21 -493.91,24.12 -826.78,10.49 -138.3,-5.69 -188.02,-49.34 -182.31,81.18 72.09,1653.07 -77.85,4579.29 -19.64,6465.96 6.07,197.46 17.67,394.81 17.82,592.41 1.57,1869.92 -74.73,2147.07 -29.63,2332.68 7.99,33 21.14,52.21 25.25,85.18 5.22,41.66 15.98,49.02 56.07,52.91 158.31,15.4 132.69,-22.96 161.79,151.94 321.66,1932.3 -115.65,1701.36 547.41,1747.05 606.7,41.77 508.21,48.61 553.76,-272.67 3.93,-27.8 1.08,-72.41 13.18,-97.59 0.74,-5.29 1.47,-10.66 2.21,-15.95 2122.43,-22.96 1700.52,20.45 3128.13,26.69 863.32,3.75 531.63,-81.32 2894.33,-19.39 566.14,14.83 832.79,-9.29 1430.55,-25.21 871.52,-23.22 439.79,49.9 2045.35,-2.25 2863.21,-92.96 12745.08,109.86 12748.55,112.21 14.2,9.64 39.24,252.85 41.03,259.59 13.82,52.81 71.82,45.51 115.36,56.53 223.16,56.31 462.9,-22.87 508.81,-25.08 256.51,-12.44 269.02,-19.21 277.17,-64.13 21.49,-118.66 15.71,-228.63 36.22,-239.64 19.81,-10.7 1419.43,-49.51 1496.23,-53.48 -1.4,13.26 -9.11,38.96 -2.8,51.37 11.57,22.03 21.03,4.56 34.71,4.95 0.71,-9.93 4.91,-12.45 13.33,-7.5 1.75,128.55 127.64,114.38 264.39,115.43 3536.39,28.16 3327.75,35.11 3355.1,-115.11 7.37,-39.31 -17.88,-20.24 191.81,-26.9 284.73,-9.05 1829.04,12.2 1887.59,-32.27 22.1,-17.01 14.03,-59.5 -16.48,-60.9z" />
    <path class="fil0 str0" d="M19119 10621.54c1.75,0.6 9.71,1.69 0,0l0 0z" />
    <path class="fil0 str0" d="M36580.99 22641.7c12.28,0 10.87,-0.03 3.16,-0.03 -1.05,0 -2.11,0.03 -3.16,0.03z" />
    <path class="fil0 str0"
      d="M35394.36 13351c34.36,66.35 -126.24,84.76 -137.81,18.17 -9.46,-53.79 118.87,-46.43 137.81,-18.17zm-207.59 16.66c3.86,68.35 89.06,113.5 150.08,113.16 144.12,-0.83 202.68,-196.06 2.1,-218.04 -63.12,-7.01 -156.39,26.83 -152.18,104.89z" />
    <path class="fil0 str0"
      d="M20964.41 11442.86c238.7,20.72 478.48,24.61 717.52,41.13 576.69,39.9 863.21,97.38 1249.82,26.16 144.82,-26.66 129.53,-100.18 63.44,348.83 -66.49,451.29 -5.86,195.1 -39.63,1009.09 -4.87,117.15 -9.05,234.16 -7.71,351.4 1.93,169.3 -55.57,315.07 -73.29,728 -26.9,628.73 -111.02,399.85 -640.05,473.99 -246.34,34.5 -355.4,-22.72 -678.14,-13.08 -316.37,9.43 -714.96,93.28 -1886.51,-2.35 -310.23,-25.32 -736,84.15 -706.68,-225.16 15.53,-164.25 47.68,-178.13 100.32,-296.42 1.57,-3.5 370.5,-1069.72 389.12,-1136.13 145.1,-518.38 133.25,-846.21 138.4,-1014.49 3.19,-104.14 37.45,-233.29 1.65,-333.79 -16.02,-46.78 -0.28,-0.94 6.49,-25.35 3.15,-11.43 11.68,-23.36 -4.35,-32.23 914,8.41 450.91,20.66 1369.6,100.39zm965.86 -50.01c779.33,92.15 338.24,37.62 947.93,57.19 -346.9,50.25 -696.69,9.09 -1043.56,-22.1 -359.91,-32.36 -721.3,-35.06 -1080.87,-73.91 503.44,22.44 804.8,-5.16 1176.5,38.82zm1111.86 99.34c-2.8,-7.29 -0.9,-2.62 0,0l0 0zm-2051.63 3021.95c369.87,-15.12 496.36,-60.36 915.43,-23.64 -45.72,2.63 -404.94,52.49 -915.43,23.64zm-1461.3 -2897.21c0.74,-90.26 12.07,-187.08 2.39,-276.39 14.65,0.63 29.31,1.08 44,1.5 -53.05,28.41 -17.63,67.54 -12.41,114.43 7.37,66.2 -6.48,135.63 -9.88,201.83 -6.74,131.08 17.67,627.05 -184.24,1221.88 127.64,-598.12 155.37,-667.9 160.14,-1263.25zm220 -314.58c-54.56,-0.42 -109.16,0.32 -163.72,-0.78 47.34,-24.43 113.16,-17.49 163.72,0.78zm37.66 -58.67c-227.78,-72.69 -280.39,43.31 -309.38,51.44 -14.8,4.14 -34.19,-9.01 -48.85,-2.91 -43.93,18.31 1.05,39.73 25.77,42.09 -3.96,9.43 30.86,567.93 -32.19,950.64 -14.73,89.38 -165.16,855.01 -219.69,986.79 -65.3,157.69 -185.5,357.89 -295.39,829.59 -9.15,39.38 -30.33,74.76 -38.47,115.12 -82.58,410.06 950.4,221.19 1824.69,315.07 863.17,92.61 1632.48,-62.91 1817.98,-55.82 79.53,3.05 169.55,19.17 246.94,-5.65 50.04,-16.02 43.7,-35.73 92.64,-40.78 60.63,-6.31 32.89,-74.62 51.38,-164.84 149.66,-730.39 106.42,-770.26 114.03,-1173.59 40.85,-2154.3 442.46,-1582.14 -709.31,-1691.82 -239.96,-22.87 -477.52,-71.05 -719.16,-75.29 -3.55,-0.07 -1025.25,-3.54 -1235.62,-17.08 -104.28,-6.73 -167.72,-29.56 -371.35,-41.34 -64.09,-3.75 -132.37,-1.93 -194.02,-21.6z" />
    <path class="fil0 str0" d="M30999.17 13689.84c1.61,4.31 -1.44,-4 0,0l0 0z" />
    <path class="fil0 str0" d="M15195.76 1935.1c-1.43,0 -7.15,0.07 0,0l0 0z" />
  </g>
</svg>